<?xml version="1.0" encoding="UTF-8"?>
<svg version="1.1" xmlns="http://www.w3.org/2000/svg" width="185" height="151">
<path d="M0 0 C61.05 0 122.1 0 185 0 C185 49.83 185 99.66 185 151 C123.95 151 62.9 151 0 151 C0 101.17 0 51.34 0 0 Z " fill="#D93632" transform="translate(0,0)"/>
<path d="M0 0 C61.05 0 122.1 0 185 0 C185 49.83 185 99.66 185 151 C123.95 151 62.9 151 0 151 C0 101.17 0 51.34 0 0 Z M109 13 C106.52394535 19.19013662 104.13630153 25.29414163 102.01953125 31.59765625 C101.76121017 32.35799667 101.5028891 33.1183371 101.23674011 33.90171814 C100.14794829 37.10651724 99.06541781 40.31341981 97.98266602 43.52026367 C97.18483482 45.88020912 96.38355616 48.2389633 95.58203125 50.59765625 C95.21486748 51.69123192 95.21486748 51.69123192 94.84028625 52.80690002 C93.11289942 57.88710058 93.11289942 57.88710058 92 59 C91.75878418 58.30140869 91.51756836 57.60281738 91.26904297 56.88305664 C85.41638368 39.93044213 85.41638368 39.93044213 79.5 23 C79.13624268 21.96178101 79.13624268 21.96178101 78.76513672 20.90258789 C77.52637628 17.39177014 77.52637628 17.39177014 76 14 C65.11 14 54.22 14 43 14 C41.515 18.310625 40.03 22.62125 38.5 27.0625 C35.00754944 37.19475686 31.5035302 47.32280413 27.97729492 57.44335938 C26.20529255 62.53044752 24.43884889 67.61939276 22.6796875 72.7109375 C22.28531494 73.85216064 21.89094238 74.99338379 21.48461914 76.16918945 C20.73318931 78.34459525 19.98232423 80.52019626 19.23217773 82.69604492 C16.54145543 90.48465062 13.77195606 98.23852303 11 106 C11 116.89 11 127.78 11 139 C64.46 139 117.92 139 173 139 C173.29240763 106.98608347 173.29240763 106.98608347 164.1875 78.81103516 C162.67663369 75.23453132 161.47960239 71.63989577 160.3125 67.9375 C158.5637848 62.59352417 156.65696265 57.32763164 154.6875 52.0625 C151.46575386 43.44705406 148.53223224 34.74727179 145.66479492 26.00805664 C145.34615479 25.03860107 145.02751465 24.06914551 144.69921875 23.0703125 C144.41908936 22.21195801 144.13895996 21.35360352 143.8503418 20.46923828 C142.98263898 17.94958674 141.98970926 15.47427316 141 13 C130.44 13 119.88 13 109 13 Z " fill="#FDEE13" transform="translate(0,0)"/>
<path d="M0 0 C10.89 0 21.78 0 33 0 C38.62616387 14.62802607 38.62616387 14.62802607 40.38671875 19.74609375 C40.76763672 20.85017578 41.14855469 21.95425781 41.54101562 23.09179688 C41.91935547 24.19587891 42.29769531 25.29996094 42.6875 26.4375 C43.07744141 27.56865234 43.46738281 28.69980469 43.86914062 29.86523438 C45.60353747 34.90239719 47.32065749 39.94418182 49 45 C49.81381795 43.06305322 50.62600916 41.12542289 51.4375 39.1875 C51.88996094 38.10855469 52.34242187 37.02960937 52.80859375 35.91796875 C53.60375013 33.9704874 54.33479648 31.99561057 55 30 C55.99 30 56.98 30 58 30 C60.07888859 26.42719148 60.76437224 22.84492559 61.5625 18.8125 C62.89588689 12.10411311 62.89588689 12.10411311 64 11 C64.36760731 8.67182036 64.70241581 6.3381615 65 4 C65.99 3.67 66.98 3.34 68 3 C68.22139648 3.70495605 68.44279297 4.40991211 68.67089844 5.13623047 C69.69329584 8.38375186 70.72160987 11.62937158 71.75 14.875 C72.09804687 15.98359375 72.44609375 17.0921875 72.8046875 18.234375 C74.42630185 23.33945722 76.0958639 28.36774179 78.140625 33.3203125 C81.4674445 41.58066357 82.5047408 46.62893322 79.125 55.0625 C78.46895316 56.80818116 77.81405496 58.55429431 77.16015625 60.30078125 C76.80969238 61.21682129 76.45922852 62.13286133 76.09814453 63.07666016 C74.14930594 68.26460887 72.36682451 73.51044073 70.5625 78.75 C69.87690568 80.72416806 69.19076087 82.69814507 68.50390625 84.671875 C68.00257551 86.11457338 67.50126161 87.5572776 67 89 C66.34 89 65.68 89 65 89 C65 89.66 65 90.32 65 91 C54.77 91 44.54 91 34 91 C33.01 87.7 32.02 84.4 31 81 C30.02458305 78.98789618 29.02767866 76.98591958 28 75 C27.2455306 72.78602257 26.53682063 70.55591561 25.875 68.3125 C25.54242188 67.19488281 25.20984375 66.07726562 24.8671875 64.92578125 C24.58101562 63.96027344 24.29484375 62.99476562 24 62 C23.67 61.01 23.34 60.02 23 59 C22.34 59 21.68 59 21 59 C20.72285156 58.28972656 20.44570313 57.57945313 20.16015625 56.84765625 C19.79792969 55.92855469 19.43570313 55.00945312 19.0625 54.0625 C18.70285156 53.14597656 18.34320313 52.22945312 17.97265625 51.28515625 C17.2003782 49.07581467 17.2003782 49.07581467 16 48 C11.38 61.53 6.76 75.06 2 89 C1.01 89 0.02 89 -1 89 C-1 89.99 -1 90.98 -1 92 C-10.24 92 -19.48 92 -29 92 C-28.34909445 88.0945667 -27.86825363 85.29515494 -26.5625 81.75 C-25.47906015 78.62927852 -24.69237373 75.62794274 -24.125 72.375 C-22.79304289 65.36357776 -20.34006707 58.72279234 -18 52 C-17.32899034 50.05614029 -16.65845095 48.11211821 -15.98828125 46.16796875 C-14.07474641 40.62364599 -12.15284411 35.0822579 -10.22900391 29.54150391 C-8.12802797 23.48732096 -6.03314917 17.43102835 -3.9375 11.375 C-1.9884375 5.744375 -1.9884375 5.744375 0 0 Z " fill="#D83533" transform="translate(43,14)"/>
<path d="M0 0 C52.8 0 105.6 0 160 0 C160 9.9 160 19.8 160 30 C107.2 30 54.4 30 0 30 C0 20.1 0 10.2 0 0 Z " fill="#E23536" transform="translate(13,108)"/>
<path d="M0 0 C6.27949505 9.41924257 9.17186251 22.24590773 12.875 32.875 C13.48323608 34.61438843 13.48323608 34.61438843 14.10375977 36.38891602 C14.47944092 37.47487061 14.85512207 38.5608252 15.2421875 39.6796875 C15.5810498 40.65663574 15.91991211 41.63358398 16.26904297 42.64013672 C17 45 17 45 17 47 C6.11 47 -4.78 47 -16 47 C-14.36752911 41.91264574 -12.73287387 36.8260964 -11.09277344 31.74121094 C-10.53682279 30.01538035 -9.98210789 28.28915114 -9.42871094 26.5625 C-3.52814841 8.15785731 -3.52814841 8.15785731 0 0 Z " fill="#FDEC16" transform="translate(59,60)"/>
<path d="M0 0 C2 1 2 1 2.89794922 3.15795898 C3.19717285 4.09454346 3.49639648 5.03112793 3.8046875 5.99609375 C4.14113281 7.03056641 4.47757813 8.06503906 4.82421875 9.13085938 C5.17097656 10.22205078 5.51773438 11.31324219 5.875 12.4375 C8.08067248 19.31030836 10.33598174 26.10041739 13.09912109 32.77197266 C17 42.4195122 17 42.4195122 17 47 C6.44 47 -4.12 47 -15 47 C-14.21557339 42.29344033 -13.17069759 38.17854202 -11.6015625 33.73046875 C-11.36593597 33.05003006 -11.13030945 32.36959137 -10.88754272 31.66853333 C-10.13785631 29.50659545 -9.38163893 27.34701321 -8.625 25.1875 C-8.12454656 23.74950668 -7.6245426 22.31135686 -7.125 20.87304688 C-6.40116796 18.78908352 -5.67704862 16.70522812 -4.95098877 14.62203979 C-3.25798336 9.76153641 -1.60950017 4.8887199 0 0 Z " fill="#FCEA17" transform="translate(124,60)"/>
<path d="M0 0 C3.23632746 2.60193372 3.91274672 5.38479752 5 9.3125 C5.94398318 12.69903967 6.83421237 15.69130688 8.5 18.79296875 C10 22 10 22 12 32 C22.23 32 32.46 32 43 32 C43.33 31.34 43.66 30.68 44 30 C44 31.32 44 32.64 44 34 C54.56 34 65.12 34 76 34 C75.01 29.545 75.01 29.545 74 25 C75.89213369 27.38573379 77.02391783 29.07175348 78 32 C92.85 32.495 92.85 32.495 108 33 C108 33.66 108 34.32 108 35 C55.2 35 2.4 35 -52 35 C-52 44.9 -52 54.8 -52 65 C0.8 65 53.6 65 108 65 C108 65.33 108 65.66 108 66 C54.54 66 1.08 66 -54 66 C-54 27.69642857 -54 27.69642857 -47 14 C-45.20708157 18.16558295 -46.9908413 21.75130248 -48.4375 25.75 C-49.7059375 29.33875 -49.7059375 29.33875 -51 33 C-41.76 33 -32.52 33 -23 33 C-23 32.01 -23 31.02 -23 30 C-22.34 30 -21.68 30 -21 30 C-21 30.99 -21 31.98 -21 33 C-5.16 33.495 -5.16 33.495 11 34 C7.61200455 24.50531137 7.61200455 24.50531137 4.19921875 15.01953125 C3.69520548 13.61722596 3.19129475 12.21488381 2.6875 10.8125 C2.42388672 10.08998047 2.16027344 9.36746094 1.88867188 8.62304688 C0.81457696 5.61837098 0 3.21666261 0 0 Z " fill="#B43324" transform="translate(65,73)"/>
<path d="M0 0 C1.76982406 4.14735879 0.05314714 7.69552489 -1.375 11.6875 C-1.60960937 12.37650391 -1.84421875 13.06550781 -2.0859375 13.77539062 C-3.83828712 18.83828712 -3.83828712 18.83828712 -5 20 C-5.33 30.23 -5.66 40.46 -6 51 C47.13 51 100.26 51 155 51 C155 51.33 155 51.66 155 52 C101.54 52 48.08 52 -7 52 C-7 13.69642857 -7 13.69642857 0 0 Z " fill="#CD3519" transform="translate(18,87)"/>
<path d="M0 0 C0.99 0 1.98 0 3 0 C9.04759719 14.61189632 14.39759653 29.46510628 18.765625 44.6640625 C20.49553407 50.60832453 22.66095126 56.27131282 25 62 C26.55602275 66.00120136 27.2037016 67.92992983 26 72 C25.29250053 70.11333475 24.58506574 68.22664523 23.87792969 66.33984375 C23.31202315 64.83159897 22.74504711 63.32375484 22.17675781 61.81640625 C18.5287804 52.12875972 15.08902528 42.44052173 12.140625 32.515625 C10.96626874 28.89603379 9.49885822 25.49605804 8 22 C7.0349328 19.27063811 6.16650808 16.51585095 5.3125 13.75 C4.97508789 12.69039062 4.97508789 12.69039062 4.63085938 11.609375 C3.70359842 8.63312098 3 6.1361445 3 3 C2.01 3.495 2.01 3.495 1 4 C0.76189628 5.6327112 0.53185765 7.26702618 0.34375 8.90625 C-0.1633285 11.99481903 -1.20650674 14.84290268 -2.2421875 17.7890625 C-2.93315128 19.80496715 -3.51527929 21.8164078 -4.0625 23.875 C-5 27 -5 27 -7 30 C-7.66 30 -8.32 30 -9 30 C-8.39933852 25.88346663 -7.48626955 22.10231962 -6.15234375 18.1640625 C-5.61577148 16.56884766 -5.61577148 16.56884766 -5.06835938 14.94140625 C-4.50858398 13.29978516 -4.50858398 13.29978516 -3.9375 11.625 C-3.37192383 9.94857422 -3.37192383 9.94857422 -2.79492188 8.23828125 C-1.86734746 5.49078234 -0.93558963 2.74477772 0 0 Z " fill="#BB2E26" transform="translate(108,14)"/>
<path d="M0 0 C0.99 0.33 1.98 0.66 3 1 C4.00756836 3.06005859 4.00756836 3.06005859 4.90234375 5.7734375 C5.24120605 6.77084961 5.58006836 7.76826172 5.92919922 8.79589844 C6.28256348 9.85325195 6.63592773 10.91060547 7 12 C7.74579637 14.07750555 8.49715197 16.15302337 9.25390625 18.2265625 C10.0236281 20.35930622 10.79315797 22.49211924 11.5625 24.625 C11.94857422 25.69234375 12.33464844 26.7596875 12.73242188 27.859375 C13.82997205 30.90334722 14.9178155 33.95053478 16 37 C16.31179199 37.86979492 16.62358398 38.73958984 16.94482422 39.63574219 C17.21955566 40.42368164 17.49428711 41.21162109 17.77734375 42.0234375 C18.01573975 42.70067871 18.25413574 43.37791992 18.49975586 44.07568359 C19 46 19 46 19 50 C19.66 50 20.32 50 21 50 C21 51.98 21 53.96 21 56 C18.59078295 53.59078295 17.46187844 51.05665491 16 48 C15.67 48 15.34 48 15 48 C14.90525391 47.04867187 14.90525391 47.04867187 14.80859375 46.078125 C12.89168749 31.46928148 6.91359454 17.40778117 1 4 C0.67 5.65 0.34 7.3 0 9 C-0.66 9 -1.32 9 -2 9 C-2.33 9.99 -2.66 10.98 -3 12 C-2.49202991 7.6822542 -1.80317221 3.96697886 0 0 Z " fill="#BC3824" transform="translate(43,14)"/>
<path d="M0 0 C1.79617982 6.27302196 -0.14641433 11.82729999 -2.2421875 17.7890625 C-2.93315128 19.80496715 -3.51527929 21.8164078 -4.0625 23.875 C-5 27 -5 27 -7 30 C-7.66 30 -8.32 30 -9 30 C-8.39933852 25.88346663 -7.48626955 22.10231962 -6.15234375 18.1640625 C-5.61577148 16.56884766 -5.61577148 16.56884766 -5.06835938 14.94140625 C-4.50858398 13.29978516 -4.50858398 13.29978516 -3.9375 11.625 C-3.37192383 9.94857422 -3.37192383 9.94857422 -2.79492188 8.23828125 C-1.86734746 5.49078234 -0.93558963 2.74477772 0 0 Z " fill="#C94125" transform="translate(108,14)"/>
<path d="M0 0 C1.76982406 4.14735879 0.05314714 7.69552489 -1.375 11.6875 C-1.60960937 12.37650391 -1.84421875 13.06550781 -2.0859375 13.77539062 C-3.83828712 18.83828712 -3.83828712 18.83828712 -5 20 C-5.15971977 22.37338639 -5.2592433 24.72118272 -5.31640625 27.09765625 C-5.33718735 27.80651474 -5.35796844 28.51537323 -5.37937927 29.24571228 C-5.44494598 31.51787305 -5.5037923 33.79015264 -5.5625 36.0625 C-5.60567849 37.59962183 -5.64929255 39.1367315 -5.69335938 40.67382812 C-5.80063449 44.4490959 -5.90188137 48.2244836 -6 52 C-6.33 52 -6.66 52 -7 52 C-8.44472669 16.52322798 -8.44472669 16.52322798 0 0 Z " fill="#C35E19" transform="translate(18,87)"/>
<path d="M0 0 C3.23632746 2.60193372 3.91274672 5.38479752 5 9.3125 C5.95879277 12.75216906 6.91234877 15.82582415 8.51953125 19.01953125 C10.06351603 22.12787 10.90035612 25.00152625 11.6875 28.375 C12.06455078 29.96441406 12.06455078 29.96441406 12.44921875 31.5859375 C12.63097656 32.38257813 12.81273438 33.17921875 13 34 C12.34 34 11.68 34 11 34 C9.83446158 30.74577548 8.6712099 27.49075788 7.51171875 24.234375 C6.46044623 21.28328791 5.398602 18.33621518 4.33203125 15.390625 C3.78372503 13.86462973 3.23554568 12.33858886 2.6875 10.8125 C2.42114746 10.08232666 2.15479492 9.35215332 1.88037109 8.59985352 C0.80902438 5.60282616 0 3.20835588 0 0 Z " fill="#B3431C" transform="translate(65,73)"/>
<path d="M0 0 C2 3 2 3 4 11 C-5.9 11 -15.8 11 -26 11 C-26 10.67 -26 10.34 -26 10 C-17.42 9.67 -8.84 9.34 0 9 C0 6.03 0 3.06 0 0 Z " fill="#D0442E" transform="translate(169,95)"/>
<path d="M0 0 C2.24781532 3.37172297 3.23299545 6.02552186 4 10 C2.625 12.4375 2.625 12.4375 1 14 C-0.32 12.68 -1.64 11.36 -3 10 C-2.01 6.7 -1.02 3.4 0 0 Z " fill="#FAE120" transform="translate(59,60)"/>
<path d="M0 0 C0.66 0 1.32 0 2 0 C2.25394531 0.845625 2.50789062 1.69125 2.76953125 2.5625 C5.05498191 10.14474091 5.05498191 10.14474091 7.8125 17.5625 C9.00704039 21.02038007 9.04913417 21.73840601 8 25 C6.06582419 19.91006365 4.1763281 14.80360565 2.3125 9.6875 C1.87550781 8.49511719 1.43851562 7.30273438 0.98828125 6.07421875 C0 3 0 3 0 0 Z " fill="#B14119" transform="translate(126,61)"/>
<path d="M0 0 C0.98120464 3.05263664 0.98120464 4.94736336 0 8 C-0.66 8 -1.32 8 -2 8 C-2.81462495 12.65499974 -3.43393721 17.30976546 -4 22 C-4.99 22.33 -5.98 22.66 -7 23 C-6.34692033 18.22064422 -5.06320189 13.79668434 -3.5 9.25 C-3.16162109 8.24259766 -3.16162109 8.24259766 -2.81640625 7.21484375 C-1.15576475 2.3115295 -1.15576475 2.3115295 0 0 Z " fill="#C6521D" transform="translate(26,64)"/>
<path d="M0 0 C2.45823172 3.68734758 3.01242616 6.69699971 4 11 C3.01 10.67 2.02 10.34 1 10 C1 9.01 1 8.02 1 7 C0.01 7.33 -0.98 7.66 -2 8 C-2 4.79604584 -1.25664978 2.90600261 0 0 Z " fill="#D54926" transform="translate(82,33)"/>
<path d="M0 0 C1.27551076 4.45941929 1.30244676 8.58041394 -0.9609375 12.78515625 C-1.92172081 14.22633122 -2.95537018 15.61839282 -4 17 C-5 15 -5 15 -4.00390625 11.5234375 C-3.53099953 10.13802064 -3.05018356 8.75528453 -2.5625 7.375 C-2.31951172 6.66859375 -2.07652344 5.9621875 -1.82617188 5.234375 C-1.22412795 3.48726713 -0.61291983 1.74332214 0 0 Z " fill="#C8531F" transform="translate(108,14)"/>
<path d="M0 0 C1.28497537 3.85492611 0.4052209 5.40346836 -0.9375 9.1875 C-1.31777344 10.27417969 -1.69804688 11.36085938 -2.08984375 12.48046875 C-2.39019531 13.31191406 -2.69054688 14.14335938 -3 15 C-4.10176129 11.64783266 -3.89303058 9.24878922 -3.1875 5.8125 C-3.01605469 4.93207031 -2.84460937 4.05164063 -2.66796875 3.14453125 C-2.44753906 2.43683594 -2.22710937 1.72914062 -2 1 C-1.34 0.67 -0.68 0.34 0 0 Z " fill="#C54520" transform="translate(50,82)"/>
<path d="M0 0 C0.45375 0.495 0.9075 0.99 1.375 1.5 C2.87635519 3.22609337 2.87635519 3.22609337 5 3 C6.34726118 7.04178355 5.32004573 9.03986281 4 13 C3.32942113 11.2097939 2.6636531 9.41778511 2 7.625 C1.62875 6.62726562 1.2575 5.62953125 0.875 4.6015625 C0 2 0 2 0 0 Z " fill="#FCE321" transform="translate(86,42)"/>
<path d="M0 0 C1.37432457 3.81756824 0.67975039 7.07255329 0 11 C-0.99 11.33 -1.98 11.66 -3 12 C-2.40075776 7.80530429 -1.42500059 3.99000166 0 0 Z " fill="#C34321" transform="translate(39,26)"/>
<path d="M0 0 C2 3 2 3 1.3125 6.625 C0.879375 7.73875 0.44625 8.8525 0 10 C-0.99 10.33 -1.98 10.66 -3 11 C-2.01 7.37 -1.02 3.74 0 0 Z " fill="#F8D927" transform="translate(113,92)"/>
<path d="M0 0 C2.00993705 3.01490557 2.72623341 5.2149927 3.625 8.6875 C3.88539063 9.68136719 4.14578125 10.67523438 4.4140625 11.69921875 C4.60742188 12.45847656 4.80078125 13.21773437 5 14 C2.53303195 11.88827535 1.14881742 10.62961216 0.390625 7.421875 C0.34421875 6.54015625 0.2978125 5.6584375 0.25 4.75 C0.19328125 3.85796875 0.1365625 2.9659375 0.078125 2.046875 C0.05234375 1.37140625 0.0265625 0.6959375 0 0 Z " fill="#EEC426" transform="translate(134,86)"/>
<path d="M0 0 C0.66 0 1.32 0 2 0 C1.01 3.3 0.02 6.6 -1 10 C-1.66 9.34 -2.32 8.68 -3 8 C-2.625 5.375 -2.625 5.375 -2 3 C-1.34 3 -0.68 3 0 3 C0 2.01 0 1.02 0 0 Z " fill="#F9D529" transform="translate(94,51)"/>
<path d="M0 0 C2.45823172 3.68734758 3.01242616 6.69699971 4 11 C3.01 11 2.02 11 1 11 C0.67 7.37 0.34 3.74 0 0 Z " fill="#F6D826" transform="translate(71,93)"/>
<path d="M0 0 C1.13757948 4.55031791 0.4283779 6.63084406 -1 11 C-1.66 11 -2.32 11 -3 11 C-2.01 7.37 -1.02 3.74 0 0 Z " fill="#F6D029" transform="translate(51,82)"/>
<path d="M0 0 C0.33 0 0.66 0 1 0 C1 2.31 1 4.62 1 7 C0.01 7.33 -0.98 7.66 -2 8 C-1.125 2.25 -1.125 2.25 0 0 Z " fill="#C43F23" transform="translate(21,79)"/>
<path d="M0 0 C1.13643966 3.40931897 0.86747764 4.00335456 -0.4375 7.1875 C-0.86869141 8.26064453 -0.86869141 8.26064453 -1.30859375 9.35546875 C-1.53675781 9.89816406 -1.76492187 10.44085938 -2 11 C-3.21563174 7.05347724 -2.53534125 4.83835312 -1 1 C-0.67 0.67 -0.34 0.34 0 0 Z " fill="#C4421F" transform="translate(54,71)"/>
</svg>
