<?xml version="1.0" encoding="UTF-8"?>
<svg version="1.1" xmlns="http://www.w3.org/2000/svg" width="313" height="313">
<path d="M0 0 C1.000811 0.02017181 2.00162201 0.04034363 3.03276062 0.06112671 C4.65006828 0.10942123 4.65006828 0.10942123 6.30004883 0.15869141 C7.40560623 0.18371735 8.51116364 0.20874329 9.65022278 0.23452759 C13.18615087 0.31679006 16.72152567 0.41335655 20.25708008 0.51025391 C22.65223967 0.568487 25.04742205 0.62579041 27.44262695 0.68212891 C33.31858523 0.82237822 39.19415234 0.97437745 45.06958008 1.13525391 C47.6495883 7.43950882 50.04722337 13.76773542 52.21411133 20.22509766 C52.50028824 21.069776 52.78646515 21.91445435 53.08131409 22.784729 C53.69613416 24.59964196 54.30984951 26.41492947 54.92254639 28.2305603 C56.58832341 33.164687 58.26431191 38.09534012 59.94067383 43.02587891 C60.4572757 44.54564583 60.4572757 44.54564583 60.98431396 46.09611511 C64.42002872 56.1895462 67.92318452 66.25894755 71.44458008 76.32275391 C71.74541504 77.18256866 72.04625 78.04238342 72.35620117 78.92825317 C72.65864746 79.79264008 72.96109375 80.65702698 73.27270508 81.54760742 C73.89382627 83.32290707 74.51491973 85.09821641 75.13598633 86.87353516 C75.44722443 87.76307388 75.75846252 88.65261261 76.07913208 89.56910706 C78.63962605 96.89268746 81.18296249 104.22215245 83.72192383 111.55322266 C84.11132141 112.6773204 84.50071899 113.80141815 84.9019165 114.95957947 C86.43948522 119.39879568 87.97682538 123.83808899 89.51190186 128.27816772 C90.56788697 131.3324399 91.62526859 134.3862256 92.68286133 137.43994141 C92.99674301 138.34934982 93.31062469 139.25875824 93.63401794 140.19572449 C94.07258873 141.46105766 94.07258873 141.46105766 94.52001953 142.75195312 C94.77233841 143.481633 95.02465729 144.21131287 95.28462219 144.96310425 C95.85028089 146.52840524 96.4806907 148.07083634 97.1502533 149.59458923 C98.12784602 152.29627851 98.32303189 154.3068528 98.32836914 157.16918945 C98.33467346 158.14337326 98.34097778 159.11755707 98.34747314 160.1212616 C98.34140045 161.68086357 98.34140045 161.68086357 98.33520508 163.27197266 C98.33711853 164.34776077 98.33903198 165.42354889 98.34100342 166.53193665 C98.34236207 168.80050898 98.33868798 171.06908917 98.33032227 173.33764648 C98.31958706 176.82048845 98.33024468 180.30281826 98.34301758 183.78564453 C98.34169654 185.98942172 98.33913531 188.19319858 98.33520508 190.39697266 C98.33925354 191.44278 98.343302 192.48858734 98.34747314 193.56608582 C98.33801666 195.0131768 98.33801666 195.0131768 98.32836914 196.48950195 C98.32677795 197.34045944 98.32518677 198.19141693 98.32354736 199.06816101 C98.06958008 201.13525391 98.06958008 201.13525391 96.06958008 203.13525391 C94.17674357 203.38480157 94.17674357 203.38480157 91.81820011 203.38414288 C90.92083545 203.38874167 90.02347078 203.39334047 89.09891325 203.39807862 C88.10681158 203.39293506 87.11470991 203.38779149 86.09254456 203.38249207 C85.04347945 203.38490648 83.99441434 203.3873209 82.91355938 203.38980848 C79.3750908 203.39547389 75.83680049 203.38676088 72.29833984 203.37817383 C69.77092439 203.37924601 67.24350917 203.38118374 64.71609497 203.38392639 C58.54974245 203.38828265 52.38345682 203.38331742 46.21711154 203.37407609 C39.04084163 203.36370674 31.86458339 203.3637619 24.6883074 203.36424867 C11.88594361 203.36474967 -0.91639522 203.35557789 -13.71875 203.34106445 C-26.14974421 203.32697924 -38.58071645 203.31989353 -51.01171875 203.32055664 C-51.77715496 203.3205966 -52.54259116 203.32063655 -53.33122241 203.32067772 C-54.0953169 203.32071807 -54.8594114 203.32075843 -55.64666027 203.32080001 C-69.78527033 203.32148953 -83.92387102 203.31560123 -98.06247805 203.30664679 C-103.06798837 203.30362754 -108.07349697 203.30256688 -113.0790081 203.30211449 C-119.81352061 203.30136188 -126.54800672 203.29502629 -133.28251266 203.28494835 C-135.75975337 203.28201926 -138.23699675 203.2807988 -140.71423912 203.28137589 C-144.08498462 203.2818641 -147.45566438 203.27623529 -150.82640076 203.26896667 C-152.31120718 203.27128958 -152.31120718 203.27128958 -153.82600969 203.27365941 C-155.17596831 203.26882274 -155.17596831 203.26882274 -156.55319881 203.26388836 C-157.33168051 203.26318393 -158.1101622 203.26247951 -158.91223425 203.26175374 C-160.93041992 203.13525391 -160.93041992 203.13525391 -163.93041992 202.13525391 C-167.04906126 171.35353376 -163.69774742 145.48365399 -153.36791992 116.63525391 C-153.10720325 115.90700661 -152.84648659 115.17875931 -152.57786942 114.42844391 C-149.50054681 105.86841876 -146.30940953 97.35325124 -143.07858562 88.85020256 C-139.75872252 80.08387833 -136.73085792 71.21704302 -133.69564819 62.34906006 C-132.25900105 58.17125411 -130.78834523 54.00549398 -129.32104492 49.83837891 C-126.89946543 42.94431865 -124.52026146 36.03654741 -122.16479492 29.11962891 C-121.85869293 28.22114227 -121.55259094 27.32265564 -121.23721313 26.39694214 C-119.77871145 22.11282228 -118.32435478 17.82734419 -116.87524414 13.54003906 C-116.36505363 12.03790164 -115.8548033 10.53578454 -115.34448242 9.03369141 C-115.112995 8.34442566 -114.88150757 7.65515991 -114.64300537 6.94500732 C-113.0436208 2.24845478 -113.0436208 2.24845478 -111.93041992 1.13525391 C-110.30367214 1.04184957 -108.67287941 1.0178022 -107.04345703 1.02172852 C-106.00245346 1.02180405 -104.96144989 1.02187958 -103.88890076 1.0219574 C-102.75662552 1.02711868 -101.62435028 1.03227997 -100.45776367 1.03759766 C-98.72859459 1.03972008 -98.72859459 1.03972008 -96.9644928 1.04188538 C-93.26560929 1.04750385 -89.56678528 1.06005949 -85.86791992 1.07275391 C-83.36726975 1.07776653 -80.86661864 1.08232984 -78.3659668 1.08642578 C-72.22076404 1.09747929 -66.07559623 1.11423539 -59.93041992 1.13525391 C-56.81780535 7.77121331 -54.32011186 14.51213959 -51.99682617 21.45947266 C-51.63701157 22.52333694 -51.27719696 23.58720123 -50.90647888 24.68330383 C-49.76459572 28.06177638 -48.6284865 31.44215361 -47.49291992 34.82275391 C-42.43631758 56.2295291 -42.43631758 56.2295291 -32.93041992 75.13525391 C-32.70571014 74.47143204 -32.48100037 73.80761017 -32.2494812 73.12367249 C-30.10388194 66.78593931 -27.95721164 60.44856999 -25.80941582 54.11158085 C-24.7059558 50.85574704 -23.60287259 47.59978671 -22.50073242 44.34350586 C-20.01796518 37.00900575 -17.5260858 29.67769831 -15.02355957 22.34991455 C-14.03236784 19.43505819 -13.05413179 16.51623797 -12.07983398 13.59570312 C-11.553913 12.04493324 -11.02758637 10.49430083 -10.50073242 8.94384766 C-10.16608475 7.92013817 -10.16608475 7.92013817 -9.82467651 6.87574768 C-7.91795785 1.33460676 -5.77316257 -0.14541971 0 0 Z M-86.93041992 78.13525391 C-87.22585693 79.03203857 -87.52129395 79.92882324 -87.82568359 80.8527832 C-95.58502468 104.37968099 -103.64277104 127.78942312 -111.93041992 151.13525391 C-110.14957336 153.33082575 -110.14957336 153.33082575 -107.8296814 153.37576294 C-106.53062363 153.3691011 -106.53062363 153.3691011 -105.20532227 153.36230469 C-103.73402359 153.36207809 -103.73402359 153.36207809 -102.23300171 153.36184692 C-101.17150909 153.35152435 -100.11001648 153.34120178 -99.01635742 153.33056641 C-97.93158112 153.32773651 -96.84680481 153.32490662 -95.72915649 153.32199097 C-92.25446679 153.31076969 -88.7800321 153.28566153 -85.30541992 153.26025391 C-82.95386114 153.25022663 -80.60229832 153.24110034 -78.25073242 153.23291016 C-72.47720748 153.21082402 -66.70383192 153.17732735 -60.93041992 153.13525391 C-59.72640941 149.52322238 -60.23112082 148.54377412 -61.46582031 145.015625 C-61.82692398 143.96958099 -62.18802765 142.92353699 -62.56007385 141.84579468 C-62.96201462 140.7115506 -63.36395538 139.57730652 -63.77807617 138.40869141 C-64.39144081 136.64436264 -64.39144081 136.64436264 -65.01719666 134.84439087 C-66.1115414 131.70199079 -67.2137087 128.56255918 -68.31970215 125.42425537 C-69.41987967 122.29637986 -70.50953718 119.16484554 -71.6003418 116.03369141 C-74.0315835 109.06326511 -76.47773921 102.09816209 -78.93041992 95.13525391 C-79.26692566 94.17977661 -79.6034314 93.22429932 -79.95013428 92.23986816 C-81.60702456 87.53719366 -83.26680258 82.83555275 -84.93041992 78.13525391 C-85.59041992 78.13525391 -86.25041992 78.13525391 -86.93041992 78.13525391 Z M18.06958008 78.13525391 C17.88689575 78.67299942 17.70421143 79.21074493 17.51599121 79.76478577 C15.56935177 85.49432569 13.62152894 91.22346243 11.6730957 96.95239258 C10.95145372 99.07469057 10.23008812 101.19708256 9.5090332 103.31958008 C8.45707407 106.41595421 7.40396504 109.51193578 6.35083008 112.60791016 C6.00189697 113.63622955 5.65296387 114.66454895 5.29345703 115.72402954 C3.482749 121.04617919 1.6431209 126.35581791 -0.24682617 131.65039062 C-0.61843872 132.69714462 -0.99005127 133.74389862 -1.3729248 134.82237244 C-2.08131646 136.81269367 -2.79607516 138.80076405 -3.51818848 140.78614807 C-3.83533813 141.67922165 -4.15248779 142.57229523 -4.47924805 143.49243164 C-4.76030396 144.27110092 -5.04135986 145.0497702 -5.33093262 145.85203552 C-6.14204875 148.54783265 -6.14204875 148.54783265 -5.93041992 153.13525391 C10.56958008 153.13525391 27.06958008 153.13525391 44.06958008 153.13525391 C45.51770971 148.79086502 43.73451298 145.59130169 42.23754883 141.45556641 C41.92985565 140.58272507 41.62216248 139.70988373 41.30514526 138.81059265 C40.29740763 135.95746917 39.27723882 133.10895697 38.25708008 130.26025391 C37.5659212 128.30967078 36.87573884 126.35874138 36.18652344 124.4074707 C34.80486743 120.49733609 33.41944559 116.58856809 32.03149414 112.68066406 C29.35067116 105.11941442 26.73682765 97.53546996 24.13208008 89.94775391 C23.33131636 87.62092496 22.53053713 85.29410134 21.72973633 82.96728516 C21.17622332 81.35665192 20.62278165 79.74599414 20.06958008 78.13525391 C19.40958008 78.13525391 18.74958008 78.13525391 18.06958008 78.13525391 Z " fill="#DE3636" transform="translate(189.930419921875,5.86474609375)"/>
<path d="M0 0 C0.9215538 0.00222061 1.8431076 0.00444122 2.79258728 0.00672913 C3.83359085 0.00680466 4.87459442 0.00688019 5.94714355 0.00695801 C7.07941879 0.01211929 8.21169403 0.01728058 9.37828064 0.02259827 C11.10744972 0.02472069 11.10744972 0.02472069 12.87155151 0.02688599 C16.57043503 0.03250446 20.26925903 0.0450601 23.96812439 0.05775452 C26.46877456 0.06276714 28.96942567 0.06733045 31.47007751 0.07142639 C37.61528027 0.0824799 43.76044808 0.099236 49.90562439 0.12025452 C53.01823896 6.75621392 55.51593245 13.4971402 57.83921814 20.44447327 C58.19903275 21.50833755 58.55884735 22.57220184 58.92956543 23.66830444 C60.07144859 27.04677699 61.20755782 30.42715422 62.34312439 33.80775452 C67.39972673 55.21452971 67.39972673 55.21452971 76.90562439 74.12025452 C79.31422268 67.02614183 81.7224586 59.93190622 84.13025284 52.8375206 C85.24872628 49.5420582 86.36731683 46.24663565 87.4861908 42.9513092 C88.77740914 39.1483733 90.06808971 35.34525506 91.35874939 31.54212952 C91.75370605 30.3791333 92.14866272 29.21613708 92.55558777 28.01789856 C95.02947253 20.72655222 97.47862808 13.4273424 99.90562439 6.12025452 C100.89562439 6.12025452 101.88562439 6.12025452 102.90562439 6.12025452 C102.90562439 5.46025452 102.90562439 4.80025452 102.90562439 4.12025452 C103.56562439 4.12025452 104.22562439 4.12025452 104.90562439 4.12025452 C106.24956785 7.44941396 107.57974623 10.78386294 108.90562439 14.12025452 C109.16730408 14.76478577 109.42898376 15.40931702 109.69859314 16.07337952 C115.90562439 31.84815507 115.90562439 31.84815507 115.90562439 39.12025452 C116.56562439 39.12025452 117.22562439 39.12025452 117.90562439 39.12025452 C118.16472595 40.03677795 118.42382751 40.95330139 118.69078064 41.89759827 C120.19943995 47.1719349 121.76586823 52.42858271 123.34312439 57.68275452 C123.79268494 59.20545959 123.79268494 59.20545959 124.25132751 60.75892639 C125.77514349 65.81958206 127.4214201 70.43293326 129.90562439 75.12025452 C129.90562439 75.78025452 129.90562439 76.44025452 129.90562439 77.12025452 C129.24562439 77.12025452 128.58562439 77.12025452 127.90562439 77.12025452 C127.79324432 77.67268829 127.68086426 78.22512207 127.56507874 78.79429626 C126.42648257 84.17539549 124.96062839 89.31389538 123.14781189 94.50306702 C122.88342316 95.27239059 122.61903442 96.04171417 122.34663391 96.83435059 C121.49586457 99.30625442 120.6382807 101.77573282 119.78062439 104.24525452 C119.19261432 105.95074896 118.60505169 107.65639772 118.01792908 109.36219788 C115.46651011 116.76637018 112.89453659 124.16325491 110.30406189 131.55384827 C109.93426208 132.61007385 109.56446228 133.66629944 109.18345642 134.75453186 C108.5188084 136.64806828 107.85074434 138.5404106 107.17857361 140.43128967 C106.88740662 141.25806213 106.59623962 142.08483459 106.29624939 142.93666077 C106.04907166 143.63219055 105.80189392 144.32772034 105.54722595 145.04432678 C104.83225484 147.35764464 104.38047753 149.7459888 103.90562439 152.12025452 C85.75562439 152.12025452 67.60562439 152.12025452 48.90562439 152.12025452 C47.91562439 147.66525452 47.91562439 147.66525452 46.90562439 143.12025452 C46.37376276 141.34271321 45.80950977 139.5741658 45.19737244 137.82264709 C44.87330917 136.88749771 44.54924591 135.95234833 44.21536255 134.98886108 C43.86951614 134.00741623 43.52366974 133.02597137 43.16734314 132.01478577 C42.80469864 130.97311752 42.44205414 129.93144928 42.06842041 128.85821533 C40.9147023 125.54806078 39.75398124 122.24041137 38.59312439 118.93275452 C37.82509497 116.73174006 37.05751293 114.53056945 36.29039001 112.32923889 C32.32299675 100.92314763 32.32299675 100.92314763 28.24790955 89.55531311 C28.00925674 88.89947739 27.77060394 88.24364166 27.52471924 87.56793213 C26.91910709 85.9113863 26.30686905 84.25726669 25.69395447 82.60340881 C24.90562439 80.12025452 24.90562439 80.12025452 24.90562439 77.12025452 C24.24562439 77.12025452 23.58562439 77.12025452 22.90562439 77.12025452 C22.7888031 77.95822571 22.67198181 78.7961969 22.55162048 79.65956116 C21.85478424 83.39261246 20.78234964 86.90326656 19.56968689 90.49134827 C19.3342366 91.19869614 19.09878632 91.90604401 18.85620117 92.63482666 C18.08567195 94.9440587 17.30825395 97.25090486 16.53062439 99.55775452 C15.99507446 101.15910425 15.45967579 102.76050458 14.92442322 104.36195374 C12.23642087 112.37592978 9.48676436 120.36464404 6.62828064 128.31947327 C6.37028687 129.03854355 6.11229309 129.75761383 5.84648132 130.49847412 C4.61689065 133.91925654 3.37677139 137.33572165 2.12095642 140.7469635 C1.68251404 141.95554016 1.24407166 143.16411682 0.79234314 144.40931702 C0.40264343 145.46844299 0.01294373 146.52756897 -0.38856506 147.61878967 C-1.38930656 150.0914723 -1.38930656 150.0914723 -0.09437561 152.12025452 C-17.58437561 152.12025452 -35.07437561 152.12025452 -53.09437561 152.12025452 C-52.42702621 146.78145932 -51.94849052 143.05879529 -50.29115295 138.20301819 C-49.9186441 137.09951523 -49.54613525 135.99601227 -49.16233826 134.85906982 C-48.55248581 133.09150078 -48.55248581 133.09150078 -47.93031311 131.28822327 C-47.5062619 130.03987198 -47.08221069 128.79152069 -46.64530945 127.50534058 C-45.49997526 124.1348233 -44.34498065 120.76769291 -43.18788147 117.40119934 C-42.2238078 114.59226604 -41.26551901 111.78137428 -40.30729294 108.97044182 C-34.05451268 90.62913628 -27.72657663 72.31373389 -21.3082428 54.02967834 C-18.27667719 45.39212152 -15.27193387 36.74665719 -12.32093811 28.08119202 C-12.01532959 27.18418579 -11.70972107 26.28717957 -11.39485168 25.36299133 C-9.93860295 21.08568197 -8.48650052 16.8070146 -7.03968811 12.52650452 C-6.52933443 11.02387896 -6.01892131 9.52127358 -5.50843811 8.01869202 C-5.27694061 7.32939606 -5.04544312 6.6401001 -4.80693054 5.92991638 C-2.84312129 0.16324587 -2.84312129 0.16324587 0 0 Z " fill="#D73534" transform="translate(80.09437561035156,6.8797454833984375)"/>
<path d="M0 0 C2 0.0625 2 0.0625 4 1 C6.07780658 5.40651811 7.02908532 10.04581479 8.12109375 14.76953125 C8.97449845 17.90626765 10.03726129 20.85374581 11.20385742 23.88256836 C12.5666053 27.50695117 13.73691394 31.19443734 14.9375 34.875 C16.78215029 40.47712395 18.72904362 45.97711974 20.9921875 51.42578125 C22.34103526 54.87109394 23.51866708 58.36514373 24.6875 61.875 C24.90220947 62.51848389 25.11691895 63.16196777 25.33813477 63.82495117 C26.33833905 66.86072903 27.28731348 69.88297543 28 73 C27.34 73 26.68 73 26 73 C25.88317871 73.83797119 25.76635742 74.67594238 25.64599609 75.53930664 C24.94915985 79.27235794 23.87672525 82.78301204 22.6640625 86.37109375 C22.42861221 87.07844162 22.19316193 87.78578949 21.95057678 88.51457214 C21.18004756 90.82380418 20.40262956 93.13065034 19.625 95.4375 C19.08945007 97.03884974 18.5540514 98.64025007 18.01879883 100.24169922 C15.33079648 108.25567526 12.58113997 116.24438952 9.72265625 124.19921875 C9.46466248 124.91828903 9.2066687 125.63735931 8.94085693 126.3782196 C7.71126626 129.79900203 6.471147 133.21546713 5.21533203 136.62670898 C4.77688965 137.83528564 4.33844727 139.0438623 3.88671875 140.2890625 C3.49701904 141.34818848 3.10731934 142.40731445 2.70581055 143.49853516 C1.70506905 145.97121779 1.70506905 145.97121779 3 148 C-14.49 148 -31.98 148 -50 148 C-49.3326506 142.6612048 -48.85411491 138.93854077 -47.19677734 134.08276367 C-46.82427856 132.97928589 -46.45177979 131.87580811 -46.06799316 130.7388916 C-45.66141479 129.56048706 -45.25483643 128.38208252 -44.8359375 127.16796875 C-44.41179565 125.91939087 -43.98765381 124.67081299 -43.55065918 123.38439941 C-42.40525973 120.01378174 -41.25020881 116.6465474 -40.0931015 113.27993393 C-39.13014829 110.47404093 -38.17309837 107.6661503 -37.2161274 104.85821247 C-30.92275474 86.39337244 -24.54202242 67.9590421 -18.07104492 49.55566406 C-15.21665872 41.42806437 -12.40779298 33.28946853 -9.70703125 25.109375 C-9.31789551 23.93173332 -9.31789551 23.93173332 -8.92089844 22.7303009 C-7.71100871 19.06195516 -6.50991569 15.39102357 -5.32177734 11.71557617 C-4.90599971 10.44447409 -4.49015138 9.17339513 -4.07421875 7.90234375 C-3.71932373 6.80398193 -3.36442871 5.70562012 -2.9987793 4.57397461 C-2 2 -2 2 0 0 Z " fill="#C21D1D" transform="translate(77,11)"/>
<path d="M0 0 C0.66 0 1.32 0 2 0 C3.34394346 3.32915944 4.67412184 6.66360842 6 10 C6.39251953 10.96679688 6.39251953 10.96679688 6.79296875 11.953125 C13 27.72790055 13 27.72790055 13 35 C13.66 35 14.32 35 15 35 C15.25910156 35.91652344 15.51820313 36.83304688 15.78515625 37.77734375 C17.29381556 43.05168038 18.86024384 48.3083282 20.4375 53.5625 C20.73720703 54.57763672 21.03691406 55.59277344 21.34570312 56.63867188 C22.8695191 61.69932754 24.51579571 66.31267875 27 71 C27 71.66 27 72.32 27 73 C26.34 73 25.68 73 25 73 C24.88761993 73.55243378 24.77523987 74.10486755 24.65945435 74.67404175 C23.52085818 80.05514098 22.055004 85.19364086 20.2421875 90.3828125 C19.97779877 91.15213608 19.71341003 91.92145966 19.44100952 92.71409607 C18.59024018 95.1859999 17.73265631 97.65547831 16.875 100.125 C16.28698993 101.83049444 15.6994273 103.53614321 15.11230469 105.24194336 C12.56088572 112.64611566 9.9889122 120.04300039 7.3984375 127.43359375 C7.0286377 128.48981934 6.65883789 129.54604492 6.27783203 130.63427734 C5.61318401 132.52781376 4.94511995 134.42015608 4.27294922 136.31103516 C3.98178223 137.13780762 3.69061523 137.96458008 3.390625 138.81640625 C3.14344727 139.51193604 2.89626953 140.20746582 2.64160156 140.92407227 C1.92663045 143.23739013 1.47485314 145.62573428 1 148 C-17.15 148 -35.3 148 -54 148 C-53.01 146.35 -52.02 144.7 -51 143 C-48.18948122 136.15699775 -46.12625401 129.08031793 -44 122 C-43.34 122 -42.68 122 -42 122 C-41.92523438 121.41476563 -41.85046875 120.82953125 -41.7734375 120.2265625 C-40.32773797 110.78699497 -37.14179085 101.98077952 -34 93 C-33.34 93 -32.68 93 -32 93 C-31.91073242 92.37633545 -31.82146484 91.7526709 -31.72949219 91.11010742 C-30.40656632 82.87765619 -27.94309993 75.18431159 -25.25 67.3125 C-24.77178386 65.8961422 -24.29401204 64.47963431 -23.81665039 63.06298828 C-19.19304388 49.39063473 -14.40761506 35.7726711 -9.59667969 22.1652832 C-9.30561844 21.33999619 -9.01455719 20.51470917 -8.7146759 19.66441345 C-8.17163026 18.12525206 -7.62691208 16.58667922 -7.0801239 15.04884338 C-5.55915175 10.73473884 -4.2133659 6.41086122 -3 2 C-2.01 2 -1.02 2 0 2 C0 1.34 0 0.68 0 0 Z " fill="#C21D1D" transform="translate(183,11)"/>
<path d="M0 0 C3.63 0 7.26 0 11 0 C13.25374117 5.76323254 15.07763927 11.52746533 16.6875 17.5 C16.91244141 18.32242188 17.13738281 19.14484375 17.36914062 19.9921875 C17.91611425 21.99387823 18.45853969 23.99681088 19 26 C20.57068908 23.07528318 21.59283399 20.24878859 22.47265625 17.05078125 C22.73240234 16.12072266 22.99214844 15.19066406 23.25976562 14.23242188 C23.52466797 13.26884766 23.78957031 12.30527344 24.0625 11.3125 C24.59205972 9.39109985 25.12445773 7.47047892 25.66015625 5.55078125 C25.89355713 4.70169189 26.12695801 3.85260254 26.36743164 2.9777832 C27 1 27 1 28 0 C29.68608966 -0.07205511 31.37500659 -0.08386068 33.0625 -0.0625 C33.98160156 -0.05347656 34.90070313 -0.04445312 35.84765625 -0.03515625 C36.55792969 -0.02355469 37.26820313 -0.01195312 38 0 C39.30804107 3.92412321 39.14277084 7.66417269 39.1328125 11.75390625 C39.13376923 12.61056381 39.13472595 13.46722137 39.13571167 14.34983826 C39.13639186 16.15957716 39.13454876 17.96931852 39.13037109 19.77905273 C39.12501403 22.55523122 39.13032487 25.33124839 39.13671875 28.10742188 C39.13605807 29.86458369 39.13477711 31.62174541 39.1328125 33.37890625 C39.13483673 34.21224991 39.13686096 35.04559357 39.13894653 35.90419006 C39.11496365 41.77007269 39.11496365 41.77007269 38 44 C36.00045254 44.04254356 33.99958364 44.04080783 32 44 C30.19605125 42.19605125 30.76294211 39.43322201 30.68359375 36.99609375 C30.64169922 35.78115234 30.59980469 34.56621094 30.55664062 33.31445312 C30.51732422 32.03505859 30.47800781 30.75566406 30.4375 29.4375 C30.39431641 28.15423828 30.35113281 26.87097656 30.30664062 25.54882812 C30.200152 22.36600147 30.09814038 19.18309326 30 16 C29.79842285 16.74161377 29.5968457 17.48322754 29.38916016 18.24731445 C28.47340534 21.60394247 27.54930747 24.95821753 26.625 28.3125 C26.30789062 29.47974609 25.99078125 30.64699219 25.6640625 31.84960938 C25.3546875 32.96787109 25.0453125 34.08613281 24.7265625 35.23828125 C24.30238037 36.7857605 24.30238037 36.7857605 23.86962891 38.36450195 C23 41 23 41 21 44 C19.02 43.67 17.04 43.34 15 43 C14.823479 42.31897217 14.64695801 41.63794434 14.46508789 40.9362793 C13.66529064 37.85307535 12.86391384 34.77028412 12.0625 31.6875 C11.78470703 30.61564453 11.50691406 29.54378906 11.22070312 28.43945312 C10.81948242 26.89741211 10.81948242 26.89741211 10.41015625 25.32421875 C10.16402588 24.37635498 9.91789551 23.42849121 9.66430664 22.4519043 C9.16741928 20.61793157 8.60086213 18.80258639 8 17 C7.97494385 17.78238037 7.9498877 18.56476074 7.92407227 19.37084961 C7.80850212 22.89324949 7.68560051 26.4153556 7.5625 29.9375 C7.52318359 31.16919922 7.48386719 32.40089844 7.44335938 33.66992188 C7.40146484 34.83974609 7.35957031 36.00957031 7.31640625 37.21484375 C7.27974854 38.29886475 7.24309082 39.38288574 7.20532227 40.49975586 C7 43 7 43 6 44 C4.02 44 2.04 44 0 44 C0 29.48 0 14.96 0 0 Z " fill="#050684" transform="translate(140,225)"/>
<path d="M0 0 C20 0 20 0 26 5 C27.20643566 8.61930698 27.32268559 11.19231005 27 15 C25 18.4375 25 18.4375 23 21 C23.825 21.61875 24.65 22.2375 25.5 22.875 C28.0307141 25.41294471 28.46427193 27.3854096 28.625 30.9375 C28.43294132 34.32885194 28.00206806 36.72842959 26 39.5 C17.99721881 46.16898433 10.47556977 43.69837132 0 43 C0 28.81 0 14.62 0 0 Z M8 7 C8 10.63 8 14.26 8 18 C10.165625 17.8453125 10.165625 17.8453125 12.375 17.6875 C13.18710937 17.62949219 13.99921875 17.57148438 14.8359375 17.51171875 C17.37921338 17.17009472 17.37921338 17.17009472 19 14 C18.81767408 10.17251095 18.81767408 10.17251095 17 7 C13.99668982 6.85806663 11.00782866 6.95763622 8 7 Z M8 24 C8 28.29 8 32.58 8 37 C13.82375162 37.30115186 13.82375162 37.30115186 19 35 C20.41441874 32.17116253 20.31900332 30.12623255 20 27 C18.57951684 24.93243871 18.57951684 24.93243871 16 24 C13.27930412 23.76635245 10.74133849 23.86293308 8 24 Z " fill="#030599" transform="translate(28,225)"/>
<path d="M0 0 C0.80373047 -0.020625 1.60746094 -0.04125 2.43554688 -0.0625 C7.47707881 -0.09547813 10.966169 0.41048637 15.3125 3.25 C18.26912647 7.5863855 18.94992017 11.05957863 18.3125 16.25 C16.82954876 19.68933292 14.97443368 22.58806632 12.3125 25.25 C12.82941406 26.37019531 13.34632812 27.49039063 13.87890625 28.64453125 C14.54478039 30.11695717 15.21011715 31.58962619 15.875 33.0625 C16.21724609 33.80048828 16.55949219 34.53847656 16.91210938 35.29882812 C17.23115234 36.01103516 17.55019531 36.72324219 17.87890625 37.45703125 C18.17740479 38.1116333 18.47590332 38.76623535 18.78344727 39.44067383 C19.3125 41.25 19.3125 41.25 18.3125 44.25 C12.5625 44.375 12.5625 44.375 10.3125 43.25 C9.34724432 40.96263654 8.49185414 38.71791525 7.6875 36.375 C7.34332031 35.41787109 7.34332031 35.41787109 6.9921875 34.44140625 C5.98763402 31.57723295 5.3125 29.30749257 5.3125 26.25 C3.0025 26.25 0.6925 26.25 -1.6875 26.25 C-1.3575 27.24 -1.0275 28.23 -0.6875 29.25 C-0.77494008 31.8308926 -0.91618495 34.36691478 -1.125 36.9375 C-1.17720703 37.63939453 -1.22941406 38.34128906 -1.28320312 39.06445312 C-1.41257865 40.79338054 -1.54932531 42.52175355 -1.6875 44.25 C-4.02044775 44.29241723 -6.35452567 44.29092937 -8.6875 44.25 C-10.63613925 42.30136075 -9.8166874 39.3519128 -9.82644653 36.75878906 C-9.8244223 35.84838867 -9.82239807 34.93798828 -9.8203125 34 C-9.82126923 33.07155273 -9.82222595 32.14310547 -9.82321167 31.18652344 C-9.82389355 29.21940035 -9.82203872 27.25227504 -9.81787109 25.28515625 C-9.81252295 22.26296974 -9.81781582 19.24093185 -9.82421875 16.21875 C-9.82355797 14.31249967 -9.82227681 12.40624943 -9.8203125 10.5 C-9.82233673 9.58959961 -9.82436096 8.67919922 -9.82644653 7.74121094 C-9.79395953 -0.89099164 -7.91984948 0.04961535 0 0 Z M-1.6875 7.25 C-1.6875 11.21 -1.6875 15.17 -1.6875 19.25 C2.84015028 19.58289957 2.84015028 19.58289957 7.3125 19.25 C9.64583333 17.25 9.64583333 17.25 10.3125 14.25 C10.25120786 11.04320551 10.25120786 11.04320551 9.3125 8.25 C5.88317929 6.53533964 2.09533935 7.19595944 -1.6875 7.25 Z " fill="#070890" transform="translate(103.6875,224.75)"/>
<path d="M0 0 C3.04263267 -0.10845027 6.08136204 -0.18752063 9.125 -0.25 C9.9809375 -0.28351563 10.836875 -0.31703125 11.71875 -0.3515625 C17.33301611 -0.43793582 20.59399228 0.16361633 25 4 C27.5692916 8.09480849 28.3018539 10.94502977 27.4375 15.625 C26.52600509 19.53948202 24.5993357 21.9700995 22 25 C22.51691406 26.12019531 23.03382813 27.24039063 23.56640625 28.39453125 C24.23228039 29.86695717 24.89761715 31.33962619 25.5625 32.8125 C25.90474609 33.55048828 26.24699219 34.28847656 26.59960938 35.04882812 C26.91865234 35.76103516 27.23769531 36.47324219 27.56640625 37.20703125 C27.86490479 37.8616333 28.16340332 38.51623535 28.47094727 39.19067383 C29 41 29 41 28 44 C22.52593918 44.36493739 22.52593918 44.36493739 20.46875 42.9375 C18.36732439 40.16540664 17.39615364 37.07655643 16.3125 33.8125 C15.97508789 32.83120117 15.97508789 32.83120117 15.63085938 31.83007812 C15.07942691 30.22271116 14.53865109 28.61169517 14 27 C12.02 26.67 10.04 26.34 8 26 C8 31.61 8 37.22 8 43 C4.535 43.495 4.535 43.495 1 44 C0 43 0 43 -0.12025452 41.24729919 C-0.11803391 40.48562943 -0.11581329 39.72395966 -0.11352539 38.93920898 C-0.11344986 38.07839218 -0.11337433 37.21757538 -0.11329651 36.33067322 C-0.10813522 35.39526199 -0.10297394 34.45985077 -0.09765625 33.49609375 C-0.0962413 32.54307877 -0.09482635 31.59006378 -0.09336853 30.60816956 C-0.08775152 27.55124835 -0.07519616 24.49439923 -0.0625 21.4375 C-0.05748719 19.37044376 -0.05292391 17.30338638 -0.04882812 15.23632812 C-0.03777656 10.15752412 -0.02050055 5.0787743 0 0 Z M8 7 C8 10.96 8 14.92 8 19 C11.11864545 20.55932272 13.66295335 19.65549131 17 19 C19.5986701 16.4013299 19.63249261 14.60157242 20 11 C19.67 10.01 19.34 9.02 19 8 C15.57067929 6.28533964 11.78283935 6.94595944 8 7 Z " fill="#050792" transform="translate(225,225)"/>
<path d="M0 0 C2.97 0 5.94 0 9 0 C10.69598519 5.65828689 12.35546485 11.32655981 14 17 C14.27779297 17.95165039 14.55558594 18.90330078 14.84179688 19.88378906 C15.6985531 22.83580965 16.53856487 25.79216427 17.375 28.75 C17.64973145 29.6898877 17.92446289 30.62977539 18.20751953 31.59814453 C18.45614746 32.48872559 18.70477539 33.37930664 18.9609375 34.296875 C19.18571777 35.08416992 19.41049805 35.87146484 19.64208984 36.68261719 C20.0567385 39.36736822 19.66974986 41.38467601 19 44 C16.125 44.1875 16.125 44.1875 13 44 C10.43383368 40.15075052 10.44902324 37.5650696 10 33 C4.06 33.495 4.06 33.495 -2 34 C-2.474375 35.464375 -2.94875 36.92875 -3.4375 38.4375 C-4.875 42.875 -4.875 42.875 -6 44 C-7.66617115 44.04063832 -9.33388095 44.042721 -11 44 C-12.62102999 39.03151227 -11.22281369 35.2813092 -9.7265625 30.48828125 C-9.36176285 29.27412788 -9.36176285 29.27412788 -8.98959351 28.03544617 C-8.21205379 25.45776034 -7.41855312 22.8852954 -6.625 20.3125 C-6.09795025 18.56996605 -5.57189726 16.82713028 -5.046875 15.08398438 C-1.21561597 2.43123194 -1.21561597 2.43123194 0 0 Z M3 11 C2.49363393 12.74816858 1.99515381 14.49862263 1.5 16.25 C1.2215625 17.22453125 0.943125 18.1990625 0.65625 19.203125 C-0.15228866 22.17023413 -0.15228866 22.17023413 0 26 C2.64 26 5.28 26 8 26 C7.55065113 23.87308203 7.09023527 21.74849961 6.625 19.625 C6.24214844 17.84996094 6.24214844 17.84996094 5.8515625 16.0390625 C5.24476035 12.91803033 5.24476035 12.91803033 3 11 Z " fill="#05078C" transform="translate(267,225)"/>
<path d="M0 0 C2.70894767 -0.08144943 5.41541263 -0.14070614 8.125 -0.1875 C8.88554688 -0.21263672 9.64609375 -0.23777344 10.4296875 -0.26367188 C15.39064668 -0.32782221 18.68524334 0.27939771 23 3 C25.94265179 6.24706405 26.918002 8.91352651 27.25 13.3125 C26.91763399 18.21489866 25.67348168 21.48340722 22 24.8125 C18.69739873 26.7734195 16.06970039 27.11695218 12.3125 27.0625 C11.10013672 27.04896484 11.10013672 27.04896484 9.86328125 27.03515625 C9.24839844 27.02355469 8.63351563 27.01195312 8 27 C8.01160156 28.05960938 8.02320312 29.11921875 8.03515625 30.2109375 C8.04453476 31.59895658 8.05363489 32.98697755 8.0625 34.375 C8.07087891 35.07367188 8.07925781 35.77234375 8.08789062 36.4921875 C8.11328125 41.7734375 8.11328125 41.7734375 7 44 C4.69 43.67 2.38 43.34 0 43 C-1.21894666 33.91659009 -0.90671862 24.9992452 -0.5625 15.875 C-0.50915496 14.33075014 -0.4564159 12.78647922 -0.40429688 11.2421875 C-0.27651284 7.49452323 -0.14054428 3.74721 0 0 Z M8 7 C8 11.29 8 15.58 8 20 C12.65693023 20.41345005 12.65693023 20.41345005 16.875 18.8125 C18.35405406 16.42957957 18.86591307 14.81582552 19 12 C18.24300635 9.07163629 18.24300635 9.07163629 16 7 C13.20394171 6.55967586 10.85650776 6.76586002 8 7 Z " fill="#080883" transform="translate(63,225)"/>
<path d="M0 0 C5.34610335 8.01915502 6.59565787 16.26603179 6.4609375 25.72265625 C6.46002106 26.78995468 6.45910461 27.85725311 6.4581604 28.95689392 C6.45216543 31.18965156 6.43654494 33.42240273 6.41162109 35.6550293 C6.37476065 39.08477039 6.37060477 42.51343947 6.37109375 45.94335938 C6.36127424 48.11980106 6.34962236 50.29623543 6.3359375 52.47265625 C6.33371185 53.49964127 6.33148621 54.52662628 6.32919312 55.58473206 C6.31643341 56.53009323 6.30367371 57.47545441 6.29052734 58.44946289 C6.28290375 59.28232315 6.27528015 60.11518341 6.26742554 60.97328186 C6 63 6 63 4 65 C2.10716349 65.24954766 2.10716349 65.24954766 -0.25137997 65.24888897 C-1.14874463 65.25348777 -2.04610929 65.25808656 -2.97066683 65.26282471 C-4.45881933 65.25510937 -4.45881933 65.25510937 -5.97703552 65.24723816 C-7.02610063 65.24965257 -8.07516574 65.25206699 -9.1560207 65.25455457 C-12.69448928 65.26021999 -16.23277959 65.25150697 -19.77124023 65.24291992 C-22.29865569 65.24399211 -24.82607091 65.24592983 -27.35348511 65.24867249 C-33.51983763 65.25302875 -39.68612326 65.24806352 -45.85246854 65.23882218 C-53.02873845 65.22845284 -60.20499669 65.22850799 -67.38127268 65.22899476 C-80.18363647 65.22949576 -92.9859753 65.22032399 -105.78833008 65.20581055 C-118.21932429 65.19172533 -130.65029653 65.18463962 -143.08129883 65.18530273 C-143.84673504 65.18534269 -144.61217124 65.18538265 -145.40080249 65.18542381 C-146.16489698 65.18546417 -146.92899147 65.18550452 -147.71624035 65.1855461 C-161.8548504 65.18623562 -175.9934511 65.18034732 -190.13205812 65.17139288 C-195.13756845 65.16837364 -200.14307705 65.16731298 -205.14858818 65.16686058 C-211.88310069 65.16610797 -218.6175868 65.15977238 -225.35209274 65.14969444 C-227.82933345 65.14676536 -230.30657683 65.1455449 -232.7838192 65.14612198 C-236.1545647 65.14661019 -239.52524446 65.14098139 -242.89598083 65.13371277 C-244.38078726 65.13603567 -244.38078726 65.13603567 -245.89558977 65.1384055 C-247.24554839 65.13356883 -247.24554839 65.13356883 -248.62277889 65.12863445 C-249.40126059 65.12793003 -250.17974228 65.1272256 -250.98181432 65.12649983 C-253 65 -253 65 -256 64 C-256 47.17 -256 30.34 -256 13 C-255.67 13 -255.34 13 -255 13 C-255 29.5 -255 46 -255 63 C-126.795 62.505 -126.795 62.505 4 62 C4 46.49 4 30.98 4 15 C3.01 14.01 2.02 13.02 1 12 C0.48828125 9.08203125 0.48828125 9.08203125 0.3125 5.8125 C0.24675781 4.72582031 0.18101562 3.63914063 0.11328125 2.51953125 C0.07589844 1.68808594 0.03851563 0.85664063 0 0 Z " fill="#AE3337" transform="translate(282,144)"/>
<path d="M0 0 C8.91 0 17.82 0 27 0 C27 2.31 27 4.62 27 7 C24.03 7 21.06 7 18 7 C18.01047363 8.04978027 18.02094727 9.09956055 18.03173828 10.18115234 C18.06788453 14.06865033 18.09088078 17.95613341 18.10986328 21.84375 C18.11993317 23.52769466 18.13358988 25.21162179 18.15087891 26.89550781 C18.17508426 29.31319501 18.18647296 31.73065143 18.1953125 34.1484375 C18.20563507 34.9036972 18.21595764 35.65895691 18.22659302 36.43710327 C18.22699318 38.2929398 18.12222716 40.1481928 18 42 C17.34 42.66 16.68 43.32 16 44 C14.02 44 12.04 44 10 44 C10 31.79 10 19.58 10 7 C6.7 7 3.4 7 0 7 C0 4.69 0 2.38 0 0 Z " fill="#060693" transform="translate(196,225)"/>
<path d="M0 0 C2.64 0 5.28 0 8 0 C8.02464513 6.1055471 8.04283371 12.21106551 8.05493164 18.31665039 C8.05997288 20.39543156 8.06680574 22.47420916 8.07543945 24.55297852 C8.08751422 27.53402586 8.09323024 30.51502649 8.09765625 33.49609375 C8.10281754 34.43150497 8.10797882 35.3669162 8.11329651 36.33067322 C8.11337204 37.19149002 8.11344757 38.05230682 8.11352539 38.93920898 C8.115746 39.70087875 8.11796661 40.46254852 8.12025452 41.24729919 C8 43 8 43 7 44 C4 44.125 4 44.125 1 44 C0 43 0 43 -0.12025452 41.24729919 C-0.11803391 40.48562943 -0.11581329 39.72395966 -0.11352539 38.93920898 C-0.11344986 38.07839218 -0.11337433 37.21757538 -0.11329651 36.33067322 C-0.10813522 35.39526199 -0.10297394 34.45985077 -0.09765625 33.49609375 C-0.0962413 32.54307877 -0.09482635 31.59006378 -0.09336853 30.60816956 C-0.08775152 27.55124835 -0.07519616 24.49439923 -0.0625 21.4375 C-0.05748719 19.37044376 -0.05292391 17.30338638 -0.04882812 15.23632812 C-0.03777656 10.15752412 -0.02050055 5.0787743 0 0 Z " fill="#080890" transform="translate(186,225)"/>
<path d="M0 0 C1.65 0.33 3.3 0.66 5 1 C5.99 5.62 6.98 10.24 8 15 C8.83144531 13.62714844 8.83144531 13.62714844 9.6796875 12.2265625 C10.41130998 11.02595125 11.14308898 9.82543537 11.875 8.625 C12.23980469 8.02171875 12.60460937 7.4184375 12.98046875 6.796875 C14.50946322 4.29488405 15.91871354 2.08128646 18 0 C20.125 0.375 20.125 0.375 22 1 C21.45298368 8.44230094 20.45801591 15.68160944 19 23 C17.68 23.33 16.36 23.66 15 24 C15.33 19.71 15.66 15.42 16 11 C15.54109375 11.85464844 15.0821875 12.70929688 14.609375 13.58984375 C13.99578125 14.69457031 13.3821875 15.79929687 12.75 16.9375 C12.14671875 18.03964844 11.5434375 19.14179688 10.921875 20.27734375 C9 23 9 23 5 24 C4.01 19.71 3.02 15.42 2 11 C1.01 15.29 0.02 19.58 -1 24 C-2.32 23.67 -3.64 23.34 -5 23 C-4.54873895 20.10290403 -4.08927369 17.20751428 -3.625 14.3125 C-3.49867187 13.49587891 -3.37234375 12.67925781 -3.2421875 11.83789062 C-2.56391849 7.64957949 -1.81597795 3.87671814 0 0 Z " fill="#8E0B0C" transform="translate(44,280)"/>
<path d="M0 0 C6.6 0 13.2 0 20 0 C20 0.33 20 0.66 20 1 C13.73 1 7.46 1 1 1 C1 14.53 1 28.06 1 42 C12.1042603 41.68873572 12.1042603 41.68873572 23 40 C24.33333333 37 24.33333333 37 23 34 C23.33984375 31.73828125 23.33984375 31.73828125 23.9375 29.3125 C24.13214844 28.50425781 24.32679687 27.69601563 24.52734375 26.86328125 C24.68332031 26.24839844 24.83929688 25.63351563 25 25 C23.35 24.67 21.7 24.34 20 24 C19.67 24.99 19.34 25.98 19 27 C18.01 26.34 17.02 25.68 16 25 C13.9507906 24.54860541 13.9507906 24.54860541 11.8125 24.375 C10.554375 24.25125 9.29625 24.1275 8 24 C8 27.3 8 30.6 8 34 C7.67 34 7.34 34 7 34 C6.97284617 32.25008666 6.95353449 30.50005055 6.9375 28.75 C6.92589844 27.77546875 6.91429687 26.8009375 6.90234375 25.796875 C7 23 7 23 8 19 C11.63 19.99 15.26 20.98 19 22 C17.39519216 18.87393036 17.39519216 18.87393036 15.0546875 18.48828125 C14.33539063 18.43027344 13.61609375 18.37226563 12.875 18.3125 C11.59625 18.209375 10.3175 18.10625 9 18 C9 17.67 9 17.34 9 17 C12.96 16.505 12.96 16.505 17 16 C18.01540112 11.89776415 18.01540112 11.89776415 17 8 C14.98330173 6.86649466 14.98330173 6.86649466 13 6 C14.45635371 5.77825067 15.91522956 5.57301302 17.375 5.375 C18.59316406 5.20097656 18.59316406 5.20097656 19.8359375 5.0234375 C20.55007812 5.01570312 21.26421875 5.00796875 22 5 C22.66 5.66 23.32 6.32 24 7 C24.33 6.01 24.66 5.02 25 4 C27.34728069 7.66762608 27.4430704 10.71698615 27 15 C25 18.4375 25 18.4375 23 21 C23.825 21.61875 24.65 22.2375 25.5 22.875 C28.0307141 25.41294471 28.46427193 27.3854096 28.625 30.9375 C28.43294132 34.32885194 28.00206806 36.72842959 26 39.5 C17.99721881 46.16898433 10.47556977 43.69837132 0 43 C0 28.81 0 14.62 0 0 Z " fill="#070881" transform="translate(28,225)"/>
<path d="M0 0 C2.97 0 5.94 0 9 0 C9.33 1.32 9.66 2.64 10 4 C9.01 4 8.02 4 7 4 C7 5.65 7 7.3 7 9 C8.65 9 10.3 9 12 9 C11.01 10.485 11.01 10.485 10 12 C10.31506627 15.14221967 10.31506627 15.14221967 11 18 C10.01 18 9.02 18 8 18 C7.67 15.69 7.34 13.38 7 11 C6.34 11 5.68 11 5 11 C5.00523682 11.70084717 5.01047363 12.40169434 5.01586914 13.1237793 C5.03670852 16.31167701 5.04968232 19.49956036 5.0625 22.6875 C5.07087891 23.79029297 5.07925781 24.89308594 5.08789062 26.02929688 C5.09111328 27.09599609 5.09433594 28.16269531 5.09765625 29.26171875 C5.10289307 30.24100342 5.10812988 31.22028809 5.11352539 32.22924805 C5.00308543 34.92469572 4.60534166 37.37545639 4 40 C2.68 40 1.36 40 0 40 C0 26.8 0 13.6 0 0 Z " fill="#020498" transform="translate(141,227)"/>
<path d="M0 0 C0.80373047 -0.020625 1.60746094 -0.04125 2.43554688 -0.0625 C7.47707881 -0.09547813 10.966169 0.41048637 15.3125 3.25 C18.26912647 7.5863855 18.94992017 11.05957863 18.3125 16.25 C17.17155685 18.7788437 15.83822129 20.91373928 14.3125 23.25 C13.6525 23.25 12.9925 23.25 12.3125 23.25 C12.6425 21.6 12.9725 19.95 13.3125 18.25 C14.3025 18.25 15.2925 18.25 16.3125 18.25 C15.9825 15.28 15.6525 12.31 15.3125 9.25 C13.9925 9.25 12.6725 9.25 11.3125 9.25 C11.6425 12.22 11.9725 15.19 12.3125 18.25 C11.3225 18.58 10.3325 18.91 9.3125 19.25 C9.3125 20.24 9.3125 21.23 9.3125 22.25 C8.3225 22.58 7.3325 22.91 6.3125 23.25 C5.3225 21.93 4.3325 20.61 3.3125 19.25 C4.9625 18.59 6.6125 17.93 8.3125 17.25 C8.6425 14.28 8.9725 11.31 9.3125 8.25 C5.6825 7.92 2.0525 7.59 -1.6875 7.25 C-1.6875 6.92 -1.6875 6.59 -1.6875 6.25 C2.9325 5.92 7.5525 5.59 12.3125 5.25 C12.3125 4.59 12.3125 3.93 12.3125 3.25 C5.3825 2.92 -1.5475 2.59 -8.6875 2.25 C-8.6875 15.45 -8.6875 28.65 -8.6875 42.25 C-6.7075 42.25 -4.7275 42.25 -2.6875 42.25 C-2.6875 36.97 -2.6875 31.69 -2.6875 26.25 C-0.17744336 30.01508495 -0.6616705 32.64461609 -1.0625 36.9375 C-1.14757812 37.9903418 -1.14757812 37.9903418 -1.234375 39.06445312 C-1.37554641 40.79380285 -1.53021959 42.52204088 -1.6875 44.25 C-4.02044775 44.29241723 -6.35452567 44.29092937 -8.6875 44.25 C-10.63613925 42.30136075 -9.8166874 39.3519128 -9.82644653 36.75878906 C-9.8244223 35.84838867 -9.82239807 34.93798828 -9.8203125 34 C-9.82126923 33.07155273 -9.82222595 32.14310547 -9.82321167 31.18652344 C-9.82389355 29.21940035 -9.82203872 27.25227504 -9.81787109 25.28515625 C-9.81252295 22.26296974 -9.81781582 19.24093185 -9.82421875 16.21875 C-9.82355797 14.31249967 -9.82227681 12.40624943 -9.8203125 10.5 C-9.82233673 9.58959961 -9.82436096 8.67919922 -9.82644653 7.74121094 C-9.79395953 -0.89099164 -7.91984948 0.04961535 0 0 Z " fill="#0A0A7B" transform="translate(103.6875,224.75)"/>
<path d="M0 0 C2.59875 -0.020625 5.1975 -0.04125 7.875 -0.0625 C8.69210449 -0.071604 9.50920898 -0.08070801 10.35107422 -0.09008789 C15.77777778 -0.11111111 15.77777778 -0.11111111 18 1 C17.67 2.65 17.34 4.3 17 6 C13.7 5.67 10.4 5.34 7 5 C7.01160156 5.91523438 7.02320312 6.83046875 7.03515625 7.7734375 C7.04417969 8.96195313 7.05320312 10.15046875 7.0625 11.375 C7.07410156 12.55835938 7.08570312 13.74171875 7.09765625 14.9609375 C7 18 7 18 6 20 C8.31 20.33 10.62 20.66 13 21 C13 21.99 13 22.98 13 24 C11.07942708 23.96744792 9.15885417 23.93489583 7.23828125 23.90234375 C4.51712168 23.96381303 4.51712168 23.96381303 0 25 C0 16.75 0 8.5 0 0 Z " fill="#040695" transform="translate(64,226)"/>
<path d="M0 0 C1.32 0.33 2.64 0.66 4 1 C3.34 7.27 2.68 13.54 2 20 C7.95212547 18.79357481 7.95212547 18.79357481 9.25 15.5625 C10.26853507 10.72445842 11.18438811 5.87631789 12 1 C13.32 0.67 14.64 0.34 16 0 C15.23840557 17.22779132 15.23840557 17.22779132 10.578125 22.65625 C8.14721152 24.72613672 6.14664351 24.87413426 3 25 C-1.56521739 22.86956522 -1.56521739 22.86956522 -3 20 C-2.84839077 13.1775846 -1.62441246 6.60594398 0 0 Z " fill="#8A0D11" transform="translate(123,280)"/>
<path d="M0 0 C3.63 0 7.26 0 11 0 C13.21704336 5.70562628 15.09968733 11.41922369 16.75 17.3125 C16.98332031 18.10978516 17.21664062 18.90707031 17.45703125 19.72851562 C17.67230469 20.49486328 17.88757813 21.26121094 18.109375 22.05078125 C18.30499023 22.73825439 18.50060547 23.42572754 18.70214844 24.1340332 C19 26 19 26 18 29 C16.0549 26.08235 15.54723683 24.37462715 15 21 C14.34 21 13.68 21 13 21 C13 24.3 13 27.6 13 31 C10.48946235 25.9789247 9.08606517 20.4526427 10.5625 14.875 C10.706875 14.25625 10.85125 13.6375 11 13 C9.94729537 11.84188612 9.94729537 11.84188612 8 11 C8 9.35 8 7.7 8 6 C8.99 6 9.98 6 11 6 C10.67 5.01 10.34 4.02 10 3 C7.03 2.67 4.06 2.34 1 2 C1 15.2 1 28.4 1 42 C2.32 42 3.64 42 5 42 C5.33 32.43 5.66 22.86 6 13 C6.33 13 6.66 13 7 13 C7.02465622 17.25414623 7.04283899 21.50825498 7.05493164 25.76245117 C7.05997101 27.21070073 7.06680253 28.65894517 7.07543945 30.10717773 C7.08752247 32.18474588 7.09323211 34.26224697 7.09765625 36.33984375 C7.10289307 37.59144287 7.10812988 38.84304199 7.11352539 40.13256836 C7 43 7 43 6 44 C4.02 44 2.04 44 0 44 C0 29.48 0 14.96 0 0 Z " fill="#05068D" transform="translate(140,225)"/>
<path d="M0 0 C1.65 0.33 3.3 0.66 5 1 C5.99 8.26 6.98 15.52 8 23 C6.68 23.33 5.36 23.66 4 24 C3 23 3 23 2.9375 20.4375 C2.958125 19.633125 2.97875 18.82875 3 18 C-0.40080577 18.10407917 -0.40080577 18.10407917 -4 19 C-5.99083177 21.4251788 -5.99083177 21.4251788 -7 24 C-8.32 23.67 -9.64 23.34 -11 23 C-9.54237887 19.91632949 -8.08377822 16.83312328 -6.625 13.75 C-6.2125 12.87730469 -5.8 12.00460937 -5.375 11.10546875 C-4.97539062 10.26113281 -4.57578125 9.41679687 -4.1640625 8.546875 C-3.79748535 7.77182617 -3.4309082 6.99677734 -3.05322266 6.19824219 C-2.05768996 4.12040807 -1.03691854 2.0574431 0 0 Z M1 7 C-0.485 10.465 -0.485 10.465 -2 14 C-0.35 14 1.3 14 3 14 C2.67 11.69 2.34 9.38 2 7 C1.67 7 1.34 7 1 7 Z " fill="#890C0D" transform="translate(217,280)"/>
<path d="M0 0 C0.99 0.33 1.98 0.66 3 1 C2.28621973 9.13709505 0.67226118 17.01731928 -1 25 C-4.76187125 25.7919729 -8.14295327 26.3428486 -12 26 C-14.60313778 22.09529333 -14.10930922 19.96715521 -13.53515625 15.453125 C-12.78696246 12.02344835 -11.72896161 10.21267158 -9 8 C-5.75 7.6875 -5.75 7.6875 -3 8 C-2.01 5.36 -1.02 2.72 0 0 Z M-7 12 C-9.35448165 14.55068845 -9.98327924 15.71017358 -10.1875 19.25 C-10.0946875 20.61125 -10.0946875 20.61125 -10 22 C-9.01 22.495 -9.01 22.495 -8 23 C-4.32769295 19.92000054 -3.43197635 17.7517398 -3 13 C-4.32 12.67 -5.64 12.34 -7 12 Z " fill="#8A1213" transform="translate(257,278)"/>
<path d="M0 0 C2 2 2 2 2.1953125 5.2578125 C2.16050781 7.17207031 2.16050781 7.17207031 2.125 9.125 C2.10695313 10.40632812 2.08890625 11.68765625 2.0703125 13.0078125 C2.04710938 13.99523437 2.02390625 14.98265625 2 16 C4.31 16 6.62 16 9 16 C9 16.99 9 17.98 9 19 C7.02 19 5.04 19 3 19 C2.67 24.94 2.34 30.88 2 37 C0.35 37 -1.3 37 -3 37 C-3.07415168 32.21284377 -3.12860204 27.42602173 -3.16479492 22.63842773 C-3.17988243 21.00978777 -3.20035506 19.38118844 -3.22631836 17.75268555 C-3.26270449 15.41184465 -3.2797262 13.07154081 -3.29296875 10.73046875 C-3.30845261 10.00224411 -3.32393646 9.27401947 -3.33988953 8.52372742 C-3.34158031 3.44615804 -3.34158031 3.44615804 -1.48168945 1.0168457 C-0.99273193 0.68128662 -0.50377441 0.34572754 0 0 Z " fill="#02039B" transform="translate(99,230)"/>
<path d="M0 0 C0.99 0.33 1.98 0.66 3 1 C3 3.31 3 5.62 3 8 C3.78375 7.95875 4.5675 7.9175 5.375 7.875 C8 8 8 8 10 10 C10.39834228 15.77596312 9.58510948 20.45211682 8 26 C6.68 26 5.36 26 4 26 C4.66 21.38 5.32 16.76 6 12 C1.86021001 13.51754851 1.86021001 13.51754851 0.953125 16.6015625 C0.72109375 17.59929687 0.4890625 18.59703125 0.25 19.625 C0.00765625 20.62789063 -0.2346875 21.63078125 -0.484375 22.6640625 C-0.65453125 23.43492187 -0.8246875 24.20578125 -1 25 C-2.32 25.33 -3.64 25.66 -5 26 C-3.46212121 3.46212121 -3.46212121 3.46212121 0 0 Z " fill="#8B1015" transform="translate(173,278)"/>
<path d="M0 0 C1.33998047 0.06960938 1.33998047 0.06960938 2.70703125 0.140625 C3.60808594 0.17671875 4.50914063 0.2128125 5.4375 0.25 C6.46810547 0.31960938 6.46810547 0.31960938 7.51953125 0.390625 C9.03506217 4.36512993 8.01841748 7.59543649 7.08203125 11.640625 C6.79457031 12.90390625 6.50710937 14.1671875 6.2109375 15.46875 C5.98277344 16.43296875 5.75460938 17.3971875 5.51953125 18.390625 C1.88953125 18.390625 -1.74046875 18.390625 -5.48046875 18.390625 C-7.56202234 14.22751783 -7.70425825 13.63038325 -6.79296875 9.390625 C-6.62410156 8.545 -6.45523438 7.699375 -6.28125 6.828125 C-5.05339939 3.09066755 -4.09997521 0.64566539 0 0 Z M-0.48046875 4.390625 C-2.66378564 6.15198855 -2.66378564 6.15198855 -2.67578125 8.3359375 C-2.64097656 9.41488281 -2.64097656 9.41488281 -2.60546875 10.515625 C-2.56421875 11.794375 -2.52296875 13.073125 -2.48046875 14.390625 C-0.53972014 14.11444967 -0.53972014 14.11444967 1.51953125 13.390625 C3.67147495 10.16270945 3.72039568 9.10661691 3.51953125 5.390625 C1.62773922 4.7091427 1.62773922 4.7091427 -0.48046875 4.390625 Z " fill="#8D0D0D" transform="translate(102.48046875,285.609375)"/>
<path d="M0 0 C1.22589844 0.01353516 1.22589844 0.01353516 2.4765625 0.02734375 C3.41628906 0.04474609 3.41628906 0.04474609 4.375 0.0625 C5.66632785 3.93648355 4.78613572 6.88238786 3.9375 10.75 C3.78990234 11.45189453 3.64230469 12.15378906 3.49023438 12.87695312 C3.1254068 14.60694194 2.75111311 16.33492963 2.375 18.0625 C-1.255 18.0625 -4.885 18.0625 -8.625 18.0625 C-10.8686785 13.57514299 -10.78518309 10.77808288 -9.625 6.0625 C-7.12789489 0.95971998 -5.56502973 -0.07950042 0 0 Z M-3.625 4.0625 C-6.0544516 7.7066774 -5.78679575 9.77491272 -5.625 14.0625 C-4.635 14.0625 -3.645 14.0625 -2.625 14.0625 C-0.7441794 11.90109805 -0.7441794 11.90109805 0.375 9.0625 C0.16170551 6.32010857 0.16170551 6.32010857 -0.625 4.0625 C-1.615 4.0625 -2.605 4.0625 -3.625 4.0625 Z " fill="#8E0F0F" transform="translate(269.625,285.9375)"/>
<path d="M0 0 C0.91007813 0.00902344 1.82015625 0.01804687 2.7578125 0.02734375 C3.45648438 0.03894531 4.15515625 0.05054688 4.875 0.0625 C4.39179152 6.2679142 3.54181876 12.06195246 1.875 18.0625 C-1.755 18.0625 -5.385 18.0625 -9.125 18.0625 C-10.85058635 14.61132731 -10.49292243 10.84322012 -10.125 7.0625 C-7.74809316 1.01219168 -6.32477315 -0.08108684 0 0 Z M-4.125 4.0625 C-6.5544516 7.7066774 -6.28679575 9.77491272 -6.125 14.0625 C-5.135 14.0625 -4.145 14.0625 -3.125 14.0625 C-0.86597898 11.62970813 0.54130785 9.39942153 0.875 6.0625 C0.215 5.4025 -0.445 4.7425 -1.125 4.0625 C-2.115 4.0625 -3.105 4.0625 -4.125 4.0625 Z " fill="#8A0D0F" transform="translate(195.125,285.9375)"/>
<path d="M0 0 C1.37478516 0.01740234 1.37478516 0.01740234 2.77734375 0.03515625 C3.69644531 0.04417969 4.61554688 0.05320312 5.5625 0.0625 C6.27277344 0.07410156 6.98304688 0.08570313 7.71484375 0.09765625 C7.60005962 2.16075001 7.47258177 4.22313979 7.33984375 6.28515625 C7.27023438 7.43371094 7.200625 8.58226562 7.12890625 9.765625 C6.73974801 12.89724742 6.03385865 15.25051434 4.71484375 18.09765625 C3.09020533 18.15161103 1.46505834 18.1904282 -0.16015625 18.22265625 C-1.06507813 18.24585938 -1.97 18.2690625 -2.90234375 18.29296875 C-5.28515625 18.09765625 -5.28515625 18.09765625 -7.28515625 16.09765625 C-8.06181884 11.5821761 -7.92925323 7.46535791 -5.34765625 3.59765625 C-2.4665516 0.10540819 -2.4665516 0.10540819 0 0 Z M-1.28515625 4.09765625 C-3.37866314 7.49960495 -3.46457788 10.15038037 -3.28515625 14.09765625 C-2.29515625 14.59265625 -2.29515625 14.59265625 -1.28515625 15.09765625 C2.01406572 12.89817493 2.14294276 12.5944148 2.90234375 8.97265625 C3.17046875 7.69390625 3.43859375 6.41515625 3.71484375 5.09765625 C2.06484375 4.76765625 0.41484375 4.43765625 -1.28515625 4.09765625 Z " fill="#8E1113" transform="translate(159.28515625,285.90234375)"/>
<path d="M0 0 C1.37562854 1.28965176 2.70766393 2.62689293 4 4 C4 4.66 4 5.32 4 6 C4.66 6 5.32 6 6 6 C6 15.9 6 25.8 6 36 C4.35 35.67 2.7 35.34 1 35 C0.97494385 34.21351074 0.9498877 33.42702148 0.92407227 32.61669922 C0.80767134 29.03598506 0.68514513 25.4555055 0.5625 21.875 C0.52318359 20.6375 0.48386719 19.4 0.44335938 18.125 C0.40146484 16.92617187 0.35957031 15.72734375 0.31640625 14.4921875 C0.27974854 13.39245605 0.24309082 12.29272461 0.20532227 11.15966797 C0.05620865 7.96543182 0.05620865 7.96543182 -0.58227539 4.71923828 C-1 2 -1 2 0 0 Z " fill="#01039A" transform="translate(171,232)"/>
<path d="M0 0 C0.99 0.33 1.98 0.66 3 1 C3.73046875 2.84765625 3.73046875 2.84765625 4.1875 5.0625 C4.34605469 5.79597656 4.50460938 6.52945313 4.66796875 7.28515625 C4.83232422 8.13400391 4.83232422 8.13400391 5 9 C6.65 8.67 8.3 8.34 10 8 C11.24546405 10.49092811 10.7767578 11.41080733 10 14 C9.34 14 8.68 14 8 14 C8.33 16.97 8.66 19.94 9 23 C4.25 24.125 4.25 24.125 2 23 C-0.03455655 15.81921219 -0.85567895 8.46028814 -1 1 C-0.67 0.67 -0.34 0.34 0 0 Z " fill="#0B0C8A" transform="translate(153,245)"/>
<path d="M0 0 C1.20462891 -0.02126953 1.20462891 -0.02126953 2.43359375 -0.04296875 C4.5625 0.1875 4.5625 0.1875 6.5625 2.1875 C7.33953544 7.79815297 6.36567693 12.89066778 4.5625 18.1875 C3.5725 18.1875 2.5825 18.1875 1.5625 18.1875 C1.8925 13.5675 2.2225 8.9475 2.5625 4.1875 C1.2425 4.5175 -0.0775 4.8475 -1.4375 5.1875 C-2.9225 11.6225 -2.9225 11.6225 -4.4375 18.1875 C-5.4275 18.1875 -6.4175 18.1875 -7.4375 18.1875 C-7.65336845 12.25111776 -7.14999434 6.89998111 -5.4375 1.1875 C-3.84855928 -0.40144072 -2.18948576 0.01751589 0 0 Z " fill="#8A1315" transform="translate(234.4375,285.8125)"/>
<path d="M0 0 C3.06303578 -0.08115993 6.12390815 -0.14057409 9.1875 -0.1875 C10.48397461 -0.22520508 10.48397461 -0.22520508 11.80664062 -0.26367188 C16.73038334 -0.32026662 19.96831189 -0.18027571 24 3 C22.68 3.33 21.36 3.66 20 4 C20 3.34 20 2.68 20 2 C14.06 2 8.12 2 2 2 C2 15.2 2 28.4 2 42 C3.65 42 5.3 42 7 42 C7 36.72 7 31.44 7 26 C7.33 26 7.66 26 8 26 C8 31.61 8 37.22 8 43 C4.535 43.495 4.535 43.495 1 44 C0 43 0 43 -0.12025452 41.24729919 C-0.11803391 40.48562943 -0.11581329 39.72395966 -0.11352539 38.93920898 C-0.11344986 38.07839218 -0.11337433 37.21757538 -0.11329651 36.33067322 C-0.10813522 35.39526199 -0.10297394 34.45985077 -0.09765625 33.49609375 C-0.0962413 32.54307877 -0.09482635 31.59006378 -0.09336853 30.60816956 C-0.08775152 27.55124835 -0.07519616 24.49439923 -0.0625 21.4375 C-0.05748719 19.37044376 -0.05292391 17.30338638 -0.04882812 15.23632812 C-0.03777656 10.15752412 -0.02050055 5.0787743 0 0 Z " fill="#11107B" transform="translate(225,225)"/>
<path d="M0 0 C0.33 1.32 0.66 2.64 1 4 C-1.49092811 5.24546405 -2.41080733 4.7767578 -5 4 C-5 4.99 -5 5.98 -5 7 C-4.0409375 7.4640625 -4.0409375 7.4640625 -3.0625 7.9375 C-1 9 -1 9 0 10 C0.29313806 12.78481156 0.40975379 14.3961523 -1.1875 16.75 C-3.51106536 18.35245887 -5.18645037 18.79413052 -8 19 C-10.3125 18.0625 -10.3125 18.0625 -12 17 C-11.67 15.68 -11.34 14.36 -11 13 C-8.03 13.495 -8.03 13.495 -5 14 C-4.77011494 11.63721264 -4.77011494 11.63721264 -7.5 9.375 C-8.325 8.59125 -9.15 7.8075 -10 7 C-9.39816251 4.97954558 -8.72693904 2.97888961 -8 1 C-5.29120665 -0.35439668 -2.99066732 -0.06501451 0 0 Z " fill="#8F1112" transform="translate(150,286)"/>
<path d="M0 0 C16.17 0 32.34 0 49 0 C51.69986056 6.74965141 53.65737083 12.06308265 55 19 C50.6197477 14.03571406 49.23910149 9.37867895 48 3 C47.16434761 2.98786972 47.16434761 2.98786972 46.31181335 2.97549438 C40.52054773 2.88952732 34.7296275 2.79002739 28.9387207 2.68261719 C26.77667027 2.64430196 24.61455553 2.6094536 22.45239258 2.578125 C19.34693396 2.53252983 16.24191901 2.47452616 13.13671875 2.4140625 C12.16788254 2.40251129 11.19904633 2.39096008 10.20085144 2.37905884 C9.3001442 2.35918915 8.39943695 2.33931946 7.47143555 2.31884766 C6.67867722 2.30552399 5.88591888 2.29220032 5.06913757 2.2784729 C3 2 3 2 0 0 Z " fill="#C63F3F" transform="translate(186,7)"/>
<path d="M0 0 C0.66 0 1.32 0 2 0 C2.67756882 1.55780332 3.34159457 3.12150096 4 4.6875 C4.37125 5.55761719 4.7425 6.42773438 5.125 7.32421875 C6.01870488 10.0572002 6.16449676 12.14700934 6 15 C6.66 15 7.32 15 8 15 C8 16.65 8 18.3 8 20 C2.33846154 17.66153846 2.33846154 17.66153846 0.625 14.3125 C0.41875 13.549375 0.2125 12.78625 0 12 C-0.62648438 11.96261719 -1.25296875 11.92523438 -1.8984375 11.88671875 C-2.71570313 11.82097656 -3.53296875 11.75523437 -4.375 11.6875 C-5.18710937 11.62949219 -5.99921875 11.57148438 -6.8359375 11.51171875 C-9 11 -9 11 -11 8 C-10.236875 7.855625 -9.47375 7.71125 -8.6875 7.5625 C-5.91827092 7.0367406 -5.91827092 7.0367406 -3 6 C-2.26676204 3.98491642 -2.26676204 3.98491642 -2 2 C-1.34 2 -0.68 2 0 2 C0 1.34 0 0.68 0 0 Z " fill="#04069B" transform="translate(277,245)"/>
<path d="M0 0 C0.99 0 1.98 0 3 0 C3 1.32 3 2.64 3 4 C4.32 4.33 5.64 4.66 7 5 C6.67 5.99 6.34 6.98 6 8 C4.68 8 3.36 8 2 8 C1.67 11.3 1.34 14.6 1 18 C1.99 18 2.98 18 4 18 C4 19.32 4 20.64 4 22 C2.1875 22.625 2.1875 22.625 0 23 C-0.99 22.34 -1.98 21.68 -3 21 C-3.2208564 18.04935852 -3.28060989 15.31631769 -3.1875 12.375 C-3.17396484 11.57320313 -3.16042969 10.77140625 -3.14648438 9.9453125 C-3.11109051 7.96325622 -3.05728234 5.98154449 -3 4 C-2.34 3.67 -1.68 3.34 -1 3 C-0.67 2.01 -0.34 1.02 0 0 Z " fill="#8F1719" transform="translate(78,282)"/>
<path d="M0 0 C18 0 18 0 21 1 C21 1.66 21 2.32 21 3 C18.37518273 3.33482863 15.75016613 3.6679277 13.125 4 C12.00544922 4.14308594 12.00544922 4.14308594 10.86328125 4.2890625 C5.2265625 5 5.2265625 5 3 5 C1.02170928 6.97829072 1.74496068 10.82327027 1.68359375 13.53515625 C1.66281265 14.28840683 1.64203156 15.04165741 1.62062073 15.81773376 C1.55504575 18.2325599 1.49620379 20.64749798 1.4375 23.0625 C1.3943223 24.69597529 1.35070827 26.3294391 1.30664062 27.96289062 C1.19935638 31.97514464 1.09811179 35.98751164 1 40 C0.67 40 0.34 40 0 40 C0 26.8 0 13.6 0 0 Z " fill="#090B9F" transform="translate(95,227)"/>
<path d="M0 0 C3.63 0 7.26 0 11 0 C11 0.33 11 0.66 11 1 C7.7 1 4.4 1 1 1 C1 14.53 1 28.06 1 42 C2.32 42 3.64 42 5 42 C5.33 32.43 5.66 22.86 6 13 C6.33 13 6.66 13 7 13 C7.02465622 17.25414623 7.04283899 21.50825498 7.05493164 25.76245117 C7.05997101 27.21070073 7.06680253 28.65894517 7.07543945 30.10717773 C7.08752247 32.18474588 7.09323211 34.26224697 7.09765625 36.33984375 C7.10289307 37.59144287 7.10812988 38.84304199 7.11352539 40.13256836 C7 43 7 43 6 44 C4.02 44 2.04 44 0 44 C0 29.48 0 14.96 0 0 Z " fill="#08066C" transform="translate(140,225)"/>
<path d="M0 0 C0.99 0 1.98 0 3 0 C4.32554118 3.97662354 3.34765994 6.09887911 2 10 C1.34 10.66 0.68 11.32 0 12 C-0.73323796 14.01508358 -0.73323796 14.01508358 -1 16 C-0.67 16.33 -0.34 16.66 0 17 C0.04092937 19.33297433 0.04241723 21.66705225 0 24 C-0.33 23.01 -0.66 22.02 -1 21 C-2.32 21 -3.64 21 -5 21 C-4.773125 20.2575 -4.54625 19.515 -4.3125 18.75 C-3.91638069 15.2641501 -4.92971144 14.67412272 -7 12 C-6.875 9.8125 -6.875 9.8125 -6 8 C-5.01 7.67 -4.02 7.34 -3 7 C-3 7.66 -3 8.32 -3 9 C-2.34 8.67 -1.68 8.34 -1 8 C-1.020625 7.05125 -1.04125 6.1025 -1.0625 5.125 C-1 2 -1 2 0 0 Z " fill="#03059A" transform="translate(247,237)"/>
<path d="M0 0 C1.27617187 0.02320313 2.55234375 0.04640625 3.8671875 0.0703125 C5.78917969 0.09738281 5.78917969 0.09738281 7.75 0.125 C9.23113281 0.15980469 9.23113281 0.15980469 10.7421875 0.1953125 C11.0721875 1.8453125 11.4021875 3.4953125 11.7421875 5.1953125 C12.70125 5.411875 12.70125 5.411875 13.6796875 5.6328125 C15.7421875 6.1953125 15.7421875 6.1953125 16.7421875 7.1953125 C17.4021875 5.8753125 18.0621875 4.5553125 18.7421875 3.1953125 C19.62109375 9.34765625 19.62109375 9.34765625 19.7421875 11.1953125 C18.7421875 12.1953125 18.7421875 12.1953125 15.8046875 12.4453125 C14.7940625 12.3628125 13.7834375 12.2803125 12.7421875 12.1953125 C10.17602118 8.34606302 10.19121074 5.7603821 9.7421875 1.1953125 C3.8021875 1.6903125 3.8021875 1.6903125 -2.2578125 2.1953125 C-2.7115625 3.6596875 -3.1653125 5.1240625 -3.6328125 6.6328125 C-4.40625 9.12890625 -4.40625 9.12890625 -5.2578125 11.1953125 C-6.2478125 11.6903125 -6.2478125 11.6903125 -7.2578125 12.1953125 C-6.97569373 10.5686277 -6.68178875 8.94398354 -6.3828125 7.3203125 C-6.22039062 6.41539062 -6.05796875 5.51046875 -5.890625 4.578125 C-4.87914979 0.76948378 -3.92215139 0.23514097 0 0 Z " fill="#080778" transform="translate(267.2578125,256.8046875)"/>
<path d="M0 0 C1.20697297 3.62091892 0.68867397 4.66110132 -0.51953125 8.21484375 C-0.87797119 9.28114014 -1.23641113 10.34743652 -1.60571289 11.44604492 C-2.20307251 13.17431519 -2.20307251 13.17431519 -2.8125 14.9375 C-3.2139624 16.11997314 -3.6154248 17.30244629 -4.02905273 18.52075195 C-8.53928499 31.73183279 -13.24951992 44.87371282 -18 58 C-18.33 58 -18.66 58 -19 58 C-19.31074701 53.75312413 -18.70782471 50.86689972 -16.9140625 47.01953125 C-12.47503325 37.21193243 -9.47059442 26.62910406 -6.15625 16.39453125 C-4.34356389 10.82840272 -2.22637272 5.41336311 0 0 Z " fill="#992426" transform="translate(98,96)"/>
<path d="M0 0 C2.97 0 5.94 0 9 0 C9 1.32 9 2.64 9 4 C8.38640625 4.02964844 7.7728125 4.05929687 7.140625 4.08984375 C4.66208975 4.85270952 4.66208975 4.85270952 3.734375 7.94140625 C3.40953125 9.13636719 3.0846875 10.33132813 2.75 11.5625 C2.41484375 12.76003906 2.0796875 13.95757812 1.734375 15.19140625 C1.49203125 16.11824219 1.2496875 17.04507812 1 18 C-0.32 17.67 -1.64 17.34 -3 17 C-2.01 11.39 -1.02 5.78 0 0 Z " fill="#8D1011" transform="translate(87,286)"/>
<path d="M0 0 C6.93 0 13.86 0 21 0 C21 0.33 21 0.66 21 1 C14.4 1 7.8 1 1 1 C1 13.21 1 25.42 1 38 C2.32 38 3.64 38 5 38 C5 34.37 5 30.74 5 27 C5.33 27 5.66 27 6 27 C6.33 30.96 6.66 34.92 7 39 C4 41 4 41 0 41 C0 27.47 0 13.94 0 0 Z " fill="#0D0C9B" transform="translate(29,226)"/>
<path d="M0 0 C1.65 0.33 3.3 0.66 5 1 C5.33 3.97 5.66 6.94 6 10 C5.67 10 5.34 10 5 10 C4.67 8.35 4.34 6.7 4 5 C2.68 5.33 1.36 5.66 0 6 C-0.33 8.31 -0.66 10.62 -1 13 C-0.34 13 0.32 13 1 13 C0.85892253 14.45880109 0.71197585 15.91703551 0.5625 17.375 C0.48128906 18.18710937 0.40007813 18.99921875 0.31640625 19.8359375 C0 22 0 22 -1 24 C-2.32 23.67 -3.64 23.34 -5 23 C-4.54873895 20.10290403 -4.08927369 17.20751428 -3.625 14.3125 C-3.49867187 13.49587891 -3.37234375 12.67925781 -3.2421875 11.83789062 C-2.56391849 7.64957949 -1.81597795 3.87671814 0 0 Z " fill="#811217" transform="translate(44,280)"/>
<path d="M0 0 C0.33 0 0.66 0 1 0 C1 11.22 1 22.44 1 34 C2.98 34 4.96 34 7 34 C7 22.78 7 11.56 7 0 C7.33 0 7.66 0 8 0 C8.0493651 4.94790177 8.08570269 9.89566083 8.10986328 14.84375 C8.11993317 16.52769466 8.13358988 18.21162179 8.15087891 19.89550781 C8.17508426 22.31319501 8.18647296 24.73065143 8.1953125 27.1484375 C8.20563507 27.9036972 8.21595764 28.65895691 8.22659302 29.43710327 C8.22699318 31.2929398 8.12222716 33.1481928 8 35 C7.34 35.66 6.68 36.32 6 37 C4.02 37 2.04 37 0 37 C0 24.79 0 12.58 0 0 Z " fill="#090672" transform="translate(206,232)"/>
<path d="M0 0 C0.66 0 1.32 0 2 0 C2.33 0.99 2.66 1.98 3 3 C2.34 3 1.68 3 1 3 C0.87625 3.70769531 0.7525 4.41539063 0.625 5.14453125 C-0.02483753 8.11347648 -0.96306207 10.83210843 -2 13.6875 C-3.86609038 19.143786 -4.74569629 24.25273605 -5 30 C-5.99 30.33 -6.98 30.66 -8 31 C-8.0825 31.66 -8.165 32.32 -8.25 33 C-9.24759791 36.99039163 -11.07166683 40.38549643 -13 44 C-14 42 -14 42 -12.93603516 38.34814453 C-12.39464854 36.77373177 -11.84505337 35.20212737 -11.2890625 33.6328125 C-11.00147064 32.80167938 -10.71387878 31.97054626 -10.41757202 31.11422729 C-9.49376392 28.44864004 -8.55976049 25.78676409 -7.625 23.125 C-6.69937769 20.46972312 -5.77586371 17.81372848 -4.85385132 15.15719604 C-4.27878049 13.50243958 -3.70125082 11.84853512 -3.1210022 10.19558716 C-2.85758026 9.44155609 -2.59415833 8.68752502 -2.32275391 7.91064453 C-2.09101471 7.25049347 -1.85927551 6.59034241 -1.62051392 5.91018677 C-0.98597902 3.95683787 -0.47486143 1.9976127 0 0 Z " fill="#AA2A2E" transform="translate(75,13)"/>
<path d="M0 0 C2.13117972 3.19676958 3.33608482 6.37934683 4.6015625 9.96875 C4.8428891 10.64546753 5.0842157 11.32218506 5.33285522 12.01940918 C5.84082938 13.44759116 6.34669308 14.8765253 6.85058594 16.30615234 C7.62297493 18.49426315 8.40478139 20.67884735 9.1875 22.86328125 C9.68025927 24.25240148 10.17246561 25.64171799 10.6640625 27.03125 C10.89839996 27.68444214 11.13273743 28.33763428 11.37417603 29.01062012 C12.35819756 31.82189829 13 33.9954134 13 37 C12.34 37 11.68 37 11 37 C11 35.68 11 34.36 11 33 C10.34 33 9.68 33 9 33 C8.87625 32.030625 8.7525 31.06125 8.625 30.0625 C8.41875 29.051875 8.2125 28.04125 8 27 C7.34 26.67 6.68 26.34 6 26 C5.59270772 23.67843403 5.25561323 21.3431213 5 19 C3.35 18.67 1.7 18.34 0 18 C-0.07412683 14.88667334 -0.0127471 12.06798451 0.5625 9 C1.03836353 5.73693578 0.68725769 3.20720254 0 0 Z " fill="#C93639" transform="translate(242,29)"/>
<path d="M0 0 C3 1 3 1 4 3 C4.2430836 7.94269981 4.25495121 11.49009758 2 16 C-1.3 16 -4.6 16 -8 16 C-8.33 15.34 -8.66 14.68 -9 14 C-8.67 13.34 -8.34 12.68 -8 12 C-4.9375 11.375 -4.9375 11.375 -2 11 C-1.47007308 9.54494642 -0.9513211 8.08581873 -0.4375 6.625 C-0.14746094 5.81289063 0.14257812 5.00078125 0.44140625 4.1640625 C1.25973028 1.97232251 1.25973028 1.97232251 0 0 Z " fill="#8E0C0D" transform="translate(162,288)"/>
<path d="M0 0 C1.89923408 2.84885113 2.6251161 4.75026021 3.5078125 8 C3.77207031 8.969375 4.03632813 9.93875 4.30859375 10.9375 C4.57800781 11.948125 4.84742188 12.95875 5.125 14 C5.40214844 15.010625 5.67929687 16.02125 5.96484375 17.0625 C8 24.60160099 8 24.60160099 8 28 C7.34 28 6.68 28 6 28 C5.3299166 25.87607494 4.66403203 23.75082476 4 21.625 C3.62875 20.44164062 3.2575 19.25828125 2.875 18.0390625 C2 15 2 15 2 13 C1.34 13 0.68 13 0 13 C0 13.66 0 14.32 0 15 C-0.66 15 -1.32 15 -2 15 C-2.33 15.66 -2.66 16.32 -3 17 C-3.33 14.69 -3.66 12.38 -4 10 C-2.68 9.67 -1.36 9.34 0 9 C0 6.03 0 3.06 0 0 Z " fill="#090A85" transform="translate(277,232)"/>
<path d="M0 0 C5.37595339 8.06393009 6.58395088 16.28788982 6.390625 25.79296875 C6.38496521 26.86501053 6.37930542 27.93705231 6.37347412 29.0415802 C6.35130514 32.42403188 6.30114562 35.80537525 6.25 39.1875 C6.22990983 41.49803144 6.21166351 43.8085797 6.1953125 46.11914062 C6.15150466 51.74646397 6.08479134 57.37315277 6 63 C5.67 63 5.34 63 5 63 C4.99413376 62.40531418 4.98826752 61.81062836 4.98222351 61.19792175 C4.91836878 55.01729245 4.83397007 48.8371877 4.73754883 42.65698242 C4.70426144 40.34943551 4.67624151 38.04180643 4.65356445 35.73413086 C4.62008892 32.42005338 4.56777602 29.10673155 4.51171875 25.79296875 C4.50532883 24.7585112 4.4989389 23.72405365 4.49235535 22.6582489 C4.46266411 21.21709465 4.46266411 21.21709465 4.43237305 19.74682617 C4.42126999 18.90077316 4.41016693 18.05472015 4.39872742 17.18302917 C3.91280046 14.52258325 2.94836484 13.79396381 1 12 C0.48828125 9.08203125 0.48828125 9.08203125 0.3125 5.8125 C0.21388672 4.18248047 0.21388672 4.18248047 0.11328125 2.51953125 C0.07589844 1.68808594 0.03851563 0.85664063 0 0 Z " fill="#B13434" transform="translate(282,144)"/>
<path d="M0 0 C2.97 0 5.94 0 9 0 C10.00000429 4.00001715 9.80688405 6.05523353 9 10 C8.34 10 7.68 10 7 10 C6.67 11.65 6.34 13.3 6 15 C5.34 15 4.68 15 4 15 C4 11.7 4 8.4 4 5 C3.01 4.67 2.02 4.34 1 4 C0.67 2.68 0.34 1.36 0 0 Z " fill="#920B0C" transform="translate(101,286)"/>
<path d="M0 0 C0.99 0.33 1.98 0.66 3 1 C2.69095829 3.27130656 2.37765093 5.54203305 2.0625 7.8125 C1.88847656 9.07707031 1.71445313 10.34164063 1.53515625 11.64453125 C1 15 1 15 0 18 C-1.32 18 -2.64 18 -4 18 C-3.71710528 15.74888027 -3.42335307 13.49912314 -3.125 11.25 C-2.96257812 9.99703125 -2.80015625 8.7440625 -2.6328125 7.453125 C-2.0941645 4.51383592 -1.51991159 2.52892853 0 0 Z " fill="#890F13" transform="translate(70,286)"/>
<path d="M0 0 C1.32 0.33 2.64 0.66 4 1 C3.67 4.3 3.34 7.6 3 11 C2.34 10.34 1.68 9.68 1 9 C1.39532025 6.54901444 2.21301426 4.36095721 3 2 C2.01 2 1.02 2 0 2 C0 2.66 0 3.32 0 4 C-0.66 4 -1.32 4 -2 4 C-1.9175 5.010625 -1.835 6.02125 -1.75 7.0625 C-2.05731769 11.90275368 -3.3836295 13.99368267 -6 18 C-6.99 18 -7.98 18 -9 18 C-8.6437915 11.23203853 -4.73652774 4.73652774 0 0 Z " fill="#86151A" transform="translate(62,280)"/>
<path d="M0 0 C0.33 0 0.66 0 1 0 C1.33 2.97 1.66 5.94 2 9 C1.175 9.433125 0.35 9.86625 -0.5 10.3125 C-1.325 10.869375 -2.15 11.42625 -3 12 C-3 12.99 -3 13.98 -3 15 C-6.96 15 -10.92 15 -15 15 C-12 10 -12 10 -9.51953125 9.07421875 C-8.62621094 8.94660156 -7.73289062 8.81898438 -6.8125 8.6875 C-5.46091797 8.47673828 -5.46091797 8.47673828 -4.08203125 8.26171875 C-3.39496094 8.17535156 -2.70789062 8.08898437 -2 8 C-1.34 5.36 -0.68 2.72 0 0 Z " fill="#030397" transform="translate(48,252)"/>
<path d="M0 0 C3.72039329 3.72039329 4.78627331 9.40190631 6.47827148 14.32128906 C7.18384868 16.36442689 7.90676063 18.40086457 8.63085938 20.4375 C9.08180421 21.7366065 9.53170879 23.03607465 9.98046875 24.3359375 C10.39192139 25.51720215 10.80337402 26.6984668 11.22729492 27.91552734 C11.96825815 30.87329337 12.10136366 32.21503131 11 35 C10.67 35 10.34 35 10 35 C9.74605469 34.07058594 9.49210937 33.14117187 9.23046875 32.18359375 C7.49402185 25.9466927 5.79159294 19.86234518 3 14 C2.34 14 1.68 14 1 14 C1.020625 12.80375 1.04125 11.6075 1.0625 10.375 C1.06882571 6.81995131 0.69888875 3.49444376 0 0 Z " fill="#BE3B3C" transform="translate(255,67)"/>
<path d="M0 0 C0.66 0.66 1.32 1.32 2 2 C1.625 4.125 1.625 4.125 1 6 C0.34 6 -0.32 6 -1 6 C-0.67 8.31 -0.34 10.62 0 13 C-4.875 12.125 -4.875 12.125 -6 11 C-6.31695969 7.19648374 -5.86241101 4.35233981 -4 1 C-2 0.0625 -2 0.0625 0 0 Z " fill="#01049A" transform="translate(162,253)"/>
<path d="M0 0 C0.99 0.33 1.98 0.66 3 1 C3 5.29 3 9.58 3 14 C1.35 13.67 -0.3 13.34 -2 13 C-3.46845421 7.52667068 -2.44038726 4.88077452 0 0 Z " fill="#02049B" transform="translate(66,252)"/>
<path d="M0 0 C2.21463013 -0.36076355 2.21463013 -0.36076355 5.00048828 -0.34057617 C6.56188034 -0.34023628 6.56188034 -0.34023628 8.15481567 -0.33988953 C9.28192963 -0.32440567 10.40904358 -0.30892181 11.5703125 -0.29296875 C13.29735916 -0.28660149 13.29735916 -0.28660149 15.05929565 -0.28010559 C18.74809855 -0.26327052 22.43636136 -0.22560874 26.125 -0.1875 C28.62108588 -0.17245944 31.11718029 -0.15876995 33.61328125 -0.14648438 C39.74237275 -0.1133512 45.8711478 -0.06310389 52 0 C52 0.99 52 1.98 52 3 C51.505 2.505 51.505 2.505 51 2 C49.48162227 1.89121858 47.95825655 1.85096403 46.43603516 1.83886719 C45.46477692 1.82925964 44.49351868 1.8196521 43.49282837 1.80975342 C42.43558563 1.80550354 41.3783429 1.80125366 40.2890625 1.796875 C38.67044815 1.78832489 38.67044815 1.78832489 37.01913452 1.77960205 C34.73086533 1.77013537 32.44258241 1.76361148 30.15429688 1.75976562 C26.64689423 1.75006058 23.14007743 1.71905257 19.6328125 1.6875 C17.414066 1.68097033 15.19531528 1.67571972 12.9765625 1.671875 C11.92336823 1.6595282 10.87017395 1.6471814 9.7850647 1.63446045 C8.80750214 1.63746155 7.82993958 1.64046265 6.82275391 1.64355469 C5.96195221 1.63990906 5.10115051 1.63626343 4.21426392 1.63250732 C1.54986557 2.07470704 0.67399469 2.93613824 -1 5 C-1.33 4.34 -1.66 3.68 -2 3 C-1.34 2.01 -0.68 1.02 0 0 Z " fill="#B14040" transform="translate(78,7)"/>
<path d="M0 0 C0.66 0.99 1.32 1.98 2 3 C-1.90794279 6.0994029 -4.70967334 7.13464242 -9.6875 7.0625 C-10.89986328 7.04896484 -10.89986328 7.04896484 -12.13671875 7.03515625 C-13.05904297 7.01775391 -13.05904297 7.01775391 -14 7 C-13.98839844 8.05960938 -13.97679688 9.11921875 -13.96484375 10.2109375 C-13.95546524 11.59895658 -13.94636511 12.98697755 -13.9375 14.375 C-13.92912109 15.07367188 -13.92074219 15.77234375 -13.91210938 16.4921875 C-13.88671875 21.7734375 -13.88671875 21.7734375 -15 24 C-17.31 23.67 -19.62 23.34 -22 23 C-22 21.35 -22 19.7 -22 18 C-21.34 18.66 -20.68 19.32 -20 20 C-18.35 20.33 -16.7 20.66 -15 21 C-15 16.05 -15 11.1 -15 6 C-12.03 6 -9.06 6 -6 6 C-6 5.34 -6 4.68 -6 4 C-4.02 3.67 -2.04 3.34 0 3 C0 2.01 0 1.02 0 0 Z " fill="#080772" transform="translate(85,245)"/>
<path d="M0 0 C0.99 0.33 1.98 0.66 3 1 C4.32 0.67 5.64 0.34 7 0 C7.33 3.3 7.66 6.6 8 10 C7.01 10.33 6.02 10.66 5 11 C4.34 10.67 3.68 10.34 3 10 C2.59270772 7.67843403 2.25561323 5.3431213 2 3 C1.01 3 0.02 3 -1 3 C-1.33 4.32 -1.66 5.64 -2 7 C-2.33 6.01 -2.66 5.02 -3 4 C-3.66 4 -4.32 4 -5 4 C-4.67 3.34 -4.34 2.68 -4 2 C-2.68 2 -1.36 2 0 2 C0 1.34 0 0.68 0 0 Z " fill="#05079E" transform="translate(270,232)"/>
<path d="M0 0 C2.59658908 1.91921801 3.02644224 3.10780296 3.8125 6.3125 C4.00617591 10.12145952 3.44841962 12.50675269 2 16 C1.67 16 1.34 16 1 16 C1 14.02 1 12.04 1 10 C-0.98 9.01 -2.96 8.02 -5 7 C-5 6.01 -5 5.02 -5 4 C-5.66 4 -6.32 4 -7 4 C-7 3.34 -7 2.68 -7 2 C-4.03 2.495 -4.03 2.495 -1 3 C-0.67 2.01 -0.34 1.02 0 0 Z " fill="#040687" transform="translate(249,229)"/>
<path d="M0 0 C1.32 0.33 2.64 0.66 4 1 C3.34 7.27 2.68 13.54 2 20 C1.67 20 1.34 20 1 20 C1 18.02 1 16.04 1 14 C0.01 14 -0.98 14 -2 14 C-1.85795259 12.41632253 -1.71119847 10.83306682 -1.5625 9.25 C-1.48128906 8.36828125 -1.40007812 7.4865625 -1.31640625 6.578125 C-1.03761535 4.30649548 -0.61209423 2.20148177 0 0 Z " fill="#8B1013" transform="translate(123,280)"/>
<path d="M0 0 C1.32 0 2.64 0 4 0 C4 1.65 4 3.3 4 5 C2.35 5.66 0.7 6.32 -1 7 C-0.34 7 0.32 7 1 7 C0.34 8.98 -0.32 10.96 -1 13 C-2.65 13.33 -4.3 13.66 -6 14 C-4.50829734 9.0276578 -2.39542583 4.58154261 0 0 Z " fill="#911319" transform="translate(217,280)"/>
<path d="M0 0 C0.91007813 0.00902344 1.82015625 0.01804687 2.7578125 0.02734375 C3.45648438 0.03894531 4.15515625 0.05054688 4.875 0.0625 C4.875 0.7225 4.875 1.3825 4.875 2.0625 C3.885 2.3925 2.895 2.7225 1.875 3.0625 C2.205 5.0425 2.535 7.0225 2.875 9.0625 C2.215 9.0625 1.555 9.0625 0.875 9.0625 C0.215 7.7425 -0.445 6.4225 -1.125 5.0625 C-2.115 5.0625 -3.105 5.0625 -4.125 5.0625 C-4.455 5.7225 -4.785 6.3825 -5.125 7.0625 C-6.445 6.7325 -7.765 6.4025 -9.125 6.0625 C-7.11119047 0.45260202 -5.85719068 -0.07509219 0 0 Z " fill="#90151E" transform="translate(195.125,285.9375)"/>
<path d="M0 0 C0.33 0 0.66 0 1 0 C0.11089318 9.24671094 -2.37405214 18.11217647 -5 27 C-6.32 27.33 -7.64 27.66 -9 28 C-6.29895639 18.57004072 -3.12847689 9.29430999 0 0 Z " fill="#AA2B30" transform="translate(58,63)"/>
<path d="M0 0 C1.32 0 2.64 0 4 0 C5.4783226 2.95664519 5.06032783 5.74229737 5 9 C4.01 9 3.02 9 2 9 C1.67 10.32 1.34 11.64 1 13 C0.34 13 -0.32 13 -1 13 C-0.835 12.34 -0.67 11.68 -0.5 11 C0.12183299 7.26900206 0.06408926 3.78126622 0 0 Z " fill="#02049B" transform="translate(115,234)"/>
<path d="M0 0 C2.17515859 3.26273789 3.31011941 6.30910713 4.625 10 C5.07101563 11.2375 5.51703125 12.475 5.9765625 13.75 C7 17 7 17 7 20 C6.34 20 5.68 20 5 20 C4.67 19.01 4.34 18.02 4 17 C3.34 17 2.68 17 2 17 C0.375 14.5 0.375 14.5 -1 12 C-0.67 11.67 -0.34 11.34 0 11 C0.07226502 9.14712498 0.0838122 7.29166122 0.0625 5.4375 C0.05347656 4.42558594 0.04445312 3.41367187 0.03515625 2.37109375 C0.02355469 1.58863281 0.01195312 0.80617188 0 0 Z " fill="#C83839" transform="translate(138,31)"/>
<path d="M0 0 C0.33 0 0.66 0 1 0 C1.33 2.31 1.66 4.62 2 7 C1.01 7.33 0.02 7.66 -1 8 C-1.03738281 8.73605469 -1.07476562 9.47210938 -1.11328125 10.23046875 C-1.79009515 20.27651037 -1.79009515 20.27651037 -5 24 C-5.66 24 -6.32 24 -7 24 C-5.40554307 15.73781407 -2.73981931 7.93711014 0 0 Z " fill="#AB2B2C" transform="translate(180,13)"/>
<path d="M0 0 C1.32 1.32 2.64 2.64 4 4 C3.67 4.66 3.34 5.32 3 6 C2.67 6 2.34 6 2 6 C2.33 15.24 2.66 24.48 3 34 C2.34 34 1.68 34 1 34 C0.97494385 33.24380371 0.9498877 32.48760742 0.92407227 31.70849609 C0.80763114 28.26384541 0.68512338 24.81943592 0.5625 21.375 C0.52318359 20.18519531 0.48386719 18.99539062 0.44335938 17.76953125 C0.40146484 16.61582031 0.35957031 15.46210938 0.31640625 14.2734375 C0.27974854 13.21560059 0.24309082 12.15776367 0.20532227 11.06787109 C0.0529811 7.95264499 0.0529811 7.95264499 -0.58227539 4.73291016 C-1 2 -1 2 0 0 Z " fill="#131698" transform="translate(171,232)"/>
<path d="M0 0 C1.32 0 2.64 0 4 0 C4 1.98 4 3.96 4 6 C6.31 6.66 8.62 7.32 11 8 C11 8.33 11 8.66 11 9 C9.54257537 9.08096803 8.08387193 9.13917774 6.625 9.1875 C5.81289062 9.22230469 5.00078125 9.25710938 4.1640625 9.29296875 C3.44992188 9.19628906 2.73578125 9.09960938 2 9 C-0.29013653 5.5647952 -0.17842973 4.014669 0 0 Z " fill="#970E10" transform="translate(120,294)"/>
<path d="M0 0 C0.66 0.33 1.32 0.66 2 1 C2 1.66 2 2.32 2 3 C1.34 3 0.68 3 0 3 C-0.226875 4.175625 -0.45375 5.35125 -0.6875 6.5625 C-2.22010836 13.54313956 -4.671259 20.25376175 -7 27 C-7.33 27 -7.66 27 -8 27 C-8.33814407 21.47698017 -7.38944223 17.96268772 -5 13 C-3.76160189 10.08612209 -2.80345183 7.30630059 -1.9375 4.25 C-1 1 -1 1 0 0 Z " fill="#A32428" transform="translate(208,81)"/>
<path d="M0 0 C-1.32 0.33 -2.64 0.66 -4 1 C-4.66 5.29 -5.32 9.58 -6 14 C-6.33 14 -6.66 14 -7 14 C-7.33 11.69 -7.66 9.38 -8 7 C-8.33 10.3 -8.66 13.6 -9 17 C-11.29524388 13.55713418 -11.10185676 11.99548479 -10.484375 8.00390625 C-9.82191123 5.26322951 -8.69567895 3.23829621 -7 1 C-4.53721199 -0.231394 -2.7204945 -0.07159196 0 0 Z " fill="#840F14" transform="translate(270,286)"/>
<path d="M0 0 C1.61949011 2.57213134 2.04408751 3.67669159 1.625 6.75 C1.41875 7.4925 1.2125 8.235 1 9 C-0.98 9 -2.96 9 -5 9 C-5.33 6.69 -5.66 4.38 -6 2 C-2.125 2.875 -2.125 2.875 -1 4 C-0.67 2.68 -0.34 1.36 0 0 Z " fill="#0A0C86" transform="translate(285,260)"/>
<path d="M0 0 C2.14588166 3.21882249 3.39802343 6.45123086 4.6875 10.0625 C4.92533203 10.69994141 5.16316406 11.33738281 5.40820312 11.99414062 C6.00030023 13.64194167 6.50661705 15.31999984 7 17 C6.67 17.66 6.34 18.32 6 19 C4.99088542 17.20963542 3.98177083 15.41927083 2.97265625 13.62890625 C2.1027487 12.02121854 2.1027487 12.02121854 1 11 C0.01 11.495 0.01 11.495 -1 12 C-1.33 10.35 -1.66 8.7 -2 7 C-1.34 7 -0.68 7 0 7 C0 4.69 0 2.38 0 0 Z " fill="#C2393A" transform="translate(269,107)"/>
<path d="M0 0 C0.33 0 0.66 0 1 0 C1.33 2.97 1.66 5.94 2 9 C4.97 9 7.94 9 11 9 C11.66 10.32 12.32 11.64 13 13 C4.13823529 12.66176471 4.13823529 12.66176471 0.3125 10.4375 C-1.69441484 6.71037244 -0.81981049 4.09905247 0 0 Z " fill="#0C0CA2" transform="translate(34,234)"/>
<path d="M0 0 C0.99 0.33 1.98 0.66 3 1 C3.9140625 3.21484375 3.9140625 3.21484375 4.625 5.9375 C5.56885598 9.56119775 5.56885598 9.56119775 7 13 C7.13415472 15.6723621 7.04318541 18.32250488 7 21 C4.76872275 17.65308412 3.61467238 14.28388372 2.375 10.5 C2.03082031 9.48486328 2.03082031 9.48486328 1.6796875 8.44921875 C0.70703083 5.51387986 0 3.11291919 0 0 Z " fill="#B73C3E" transform="translate(218,107)"/>
<path d="M0 0 C0.33 0 0.66 0 1 0 C0.67 3.3 0.34 6.6 0 10 C0.99 10 1.98 10 3 10 C3 11.32 3 12.64 3 14 C-0.75 15.125 -0.75 15.125 -3 14 C-2.58846263 9.02906176 -2.20399168 4.55491614 0 0 Z " fill="#8B0C0F" transform="translate(79,290)"/>
<path d="M0 0 C2.125 0.375 2.125 0.375 4 1 C4.33 3.31 4.66 5.62 5 8 C3.68 7.67 2.36 7.34 1 7 C0.67 7.66 0.34 8.32 0 9 C-0.66 9 -1.32 9 -2 9 C-2.125 5.625 -2.125 5.625 -2 2 C-1.34 1.34 -0.68 0.68 0 0 Z " fill="#9E0B0F" transform="translate(45,284)"/>
<path d="M0 0 C0.33 0.99 0.66 1.98 1 3 C3.64 3 6.28 3 9 3 C9 3.33 9 3.66 9 4 C8.071875 4.061875 7.14375 4.12375 6.1875 4.1875 C2.8109337 4.68827104 2.8109337 4.68827104 1.125 7.5625 C0.75375 8.366875 0.3825 9.17125 0 10 C-1.32 9.67 -2.64 9.34 -4 9 C-2.68 6.03 -1.36 3.06 0 0 Z " fill="#871012" transform="translate(210,294)"/>
<path d="M0 0 C0.66 0 1.32 0 2 0 C2.53154742 1.60064843 3.04988353 3.20568874 3.5625 4.8125 C3.85253906 5.70582031 4.14257812 6.59914062 4.44140625 7.51953125 C5 10 5 10 4 13 C2 10 2 10 1.5 7.4375 C1.19851753 4.83145436 1.19851753 4.83145436 -1 3 C-0.67 2.01 -0.34 1.02 0 0 Z M-4 4 C-3.01 4.33 -2.02 4.66 -1 5 C-1 8.3 -1 11.6 -1 15 C-2.95216435 11.09567131 -3.50639991 8.27786748 -4 4 Z " fill="#07087D" transform="translate(154,241)"/>
<path d="M0 0 C2.97 0 5.94 0 9 0 C9.33 2.31 9.66 4.62 10 7 C8 4 8 4 8 2 C5.69 2 3.38 2 1 2 C1.33 2.99 1.66 3.98 2 5 C0.68 6.32 -0.64 7.64 -2 9 C-1.125 2.25 -1.125 2.25 0 0 Z " fill="#11117F" transform="translate(267,225)"/>
<path d="M0 0 C1.875 0.1875 1.875 0.1875 4 1 C5.375 3.3125 5.375 3.3125 6 6 C5.125 8.3125 5.125 8.3125 4 10 C3.01 10 2.02 10 1 10 C-0.60725635 6.78548731 -0.05748185 3.56387464 0 0 Z " fill="#01039A" transform="translate(83,234)"/>
<path d="M0 0 C0.99 0.33 1.98 0.66 3 1 C4.1875 4.5625 4.1875 4.5625 5 8 C4.01 8 3.02 8 2 8 C2 10.31 2 12.62 2 15 C1.34 14.67 0.68 14.34 0 14 C-0.44921875 11.09375 -0.44921875 11.09375 -0.6875 7.5 C-0.77386719 6.3140625 -0.86023438 5.128125 -0.94921875 3.90625 C-0.96597656 2.9471875 -0.98273438 1.988125 -1 1 C-0.67 0.67 -0.34 0.34 0 0 Z " fill="#040798" transform="translate(153,245)"/>
<path d="M0 0 C2.17515859 3.26273789 3.31011941 6.30910713 4.625 10 C5.07101563 11.2375 5.51703125 12.475 5.9765625 13.75 C7 17 7 17 7 20 C6.34 20 5.68 20 5 20 C5 18.68 5 17.36 5 16 C4.34 16 3.68 16 3 16 C2.87625 15.030625 2.7525 14.06125 2.625 13.0625 C2.41875 12.051875 2.2125 11.04125 2 10 C1.34 9.67 0.68 9.34 0 9 C0 6.03 0 3.06 0 0 Z " fill="#BD3B3E" transform="translate(248,46)"/>
<path d="M0 0 C3.3 0.66 6.6 1.32 10 2 C8 5 8 5 5.625 5.8125 C2.70744102 6.02089707 1.4404341 5.53656962 -1 4 C-0.67 2.68 -0.34 1.36 0 0 Z " fill="#8A1218" transform="translate(139,299)"/>
<path d="M0 0 C0.99 0 1.98 0 3 0 C3 0.66 3 1.32 3 2 C4.32 2 5.64 2 7 2 C6.67 3.32 6.34 4.64 6 6 C5.34 5.67 4.68 5.34 4 5 C1.62876754 4.76970044 -0.74741943 4.58880058 -3.125 4.4375 C-4.40632812 4.35371094 -5.68765625 4.26992187 -7.0078125 4.18359375 C-8.48894531 4.09271484 -8.48894531 4.09271484 -10 4 C-10 3.67 -10 3.34 -10 3 C-9.36191406 2.95101562 -8.72382813 2.90203125 -8.06640625 2.8515625 C-7.24011719 2.77679688 -6.41382813 2.70203125 -5.5625 2.625 C-4.73878906 2.55539063 -3.91507813 2.48578125 -3.06640625 2.4140625 C-2.38449219 2.27742187 -1.70257813 2.14078125 -1 2 C-0.67 1.34 -0.34 0.68 0 0 Z " fill="#0809A0" transform="translate(242,227)"/>
<path d="M0 0 C0.99 0.33 1.98 0.66 3 1 C2.67 3.97 2.34 6.94 2 10 C0.68 9.34 -0.64 8.68 -2 8 C-1.125 1.125 -1.125 1.125 0 0 Z " fill="#83141E" transform="translate(257,278)"/>
<path d="M0 0 C2.00406482 3.00609722 3.03076258 5.59242695 4.1875 9 C4.55230469 10.051875 4.91710937 11.10375 5.29296875 12.1875 C6 15 6 15 5 18 C0.63970258 12.23315503 -0.2198269 7.25428782 0 0 Z " fill="#BD363B" transform="translate(235,8)"/>
<path d="M0 0 C-0.33 2.97 -0.66 5.94 -1 9 C-1.33 9 -1.66 9 -2 9 C-2.33 6.69 -2.66 4.38 -3 2 C-5.64 2.99 -8.28 3.98 -11 5 C-10.375 2.5625 -10.375 2.5625 -9 0 C-5.40643641 -1.0704232 -3.5731613 -1.19105377 0 0 Z " fill="#92191F" transform="translate(275,287)"/>
<path d="M0 0 C0.309375 0.639375 0.61875 1.27875 0.9375 1.9375 C1.8345163 3.93610821 1.8345163 3.93610821 3 5 C4.51469448 5.23192865 6.03754562 5.41215238 7.5625 5.5625 C8.38878906 5.64628906 9.21507812 5.73007813 10.06640625 5.81640625 C10.70449219 5.87699219 11.34257812 5.93757812 12 6 C12 6.33 12 6.66 12 7 C7.05 7 2.1 7 -3 7 C-2 3 -2 3 0 0 Z " fill="#0D0CA0" transform="translate(265,250)"/>
<path d="M0 0 C2.97 0 5.94 0 9 0 C9.33 1.32 9.66 2.64 10 4 C9.01 3.67 8.02 3.34 7 3 C6.01 3.66 5.02 4.32 4 5 C3.01 4.67 2.02 4.34 1 4 C0.67 2.68 0.34 1.36 0 0 Z " fill="#941F23" transform="translate(101,286)"/>
<path d="M0 0 C2.36556709 2.36556709 2.58244041 3.74303521 3 7 C2 8 2 8 -0.9375 8.125 C-4 8 -4 8 -6 7 C-6.625 3.9375 -6.625 3.9375 -7 1 C-6.34 1 -5.68 1 -5 1 C-5 2.65 -5 4.3 -5 6 C-3.02 6 -1.04 6 1 6 C0.67 4.02 0.34 2.04 0 0 Z " fill="#19167C" transform="translate(120,261)"/>
<path d="M0 0 C1.67641098 4.09086452 0.2409319 7.71511018 -0.9375 11.75 C-1.13279297 12.44738281 -1.32808594 13.14476562 -1.52929688 13.86328125 C-2.0108246 15.57798973 -2.50425157 17.28934877 -3 19 C-4.4606285 16.35261084 -5 15.10551666 -5 12 C-4.34 12 -3.68 12 -3 12 C-2.87625 11.319375 -2.7525 10.63875 -2.625 9.9375 C-1.90899123 6.5722588 -0.97054875 3.29986575 0 0 Z " fill="#040577" transform="translate(166,247)"/>
<path d="M0 0 C0.33 0 0.66 0 1 0 C1.33 2.97 1.66 5.94 2 9 C-1.42094242 11.28062828 -2.68187222 11.21925007 -6.6875 11.125 C-8.17830078 11.09792969 -8.17830078 11.09792969 -9.69921875 11.0703125 C-10.45847656 11.04710937 -11.21773437 11.02390625 -12 11 C-12 10.67 -12 10.34 -12 10 C-8.7 9.34 -5.4 8.68 -2 8 C-1.34 5.36 -0.68 2.72 0 0 Z " fill="#070A7D" transform="translate(48,252)"/>
<path d="M0 0 C0.99 0 1.98 0 3 0 C2.67 2.97 2.34 5.94 2 9 C1.34 9 0.68 9 0 9 C0 8.01 0 7.02 0 6 C-0.66 6 -1.32 6 -2 6 C-2.33 6.66 -2.66 7.32 -3 8 C-2.67 6.02 -2.34 4.04 -2 2 C-1.34 2 -0.68 2 0 2 C0 1.34 0 0.68 0 0 Z " fill="#9C0C0E" transform="translate(62,282)"/>
<path d="M0 0 C0.78375 0.474375 1.5675 0.94875 2.375 1.4375 C3.88948678 2.33898023 5.4235897 3.21179485 7 4 C6.34 4.66 5.68 5.32 5 6 C5.32198966 9.09926819 5.32198966 9.09926819 6 12 C5.01 12 4.02 12 3 12 C2.67 9.36 2.34 6.72 2 4 C1.34 4 0.68 4 0 4 C0 2.68 0 1.36 0 0 Z " fill="#0D1099" transform="translate(146,233)"/>
<path d="M0 0 C0.66 0.33 1.32 0.66 2 1 C2 3.97 2 6.94 2 10 C0.68 10.33 -0.64 10.66 -2 11 C-2 9.02 -2 7.04 -2 5 C-1.34 5 -0.68 5 0 5 C0 3.35 0 1.7 0 0 Z " fill="#910B09" transform="translate(172,285)"/>
<path d="M0 0 C1.32 0.33 2.64 0.66 4 1 C3.34 7.27 2.68 13.54 2 20 C1.67 20 1.34 20 1 20 C1.01160156 18.80761719 1.02320312 17.61523438 1.03515625 16.38671875 C1.04453592 14.82031406 1.05363593 13.25390769 1.0625 11.6875 C1.07087891 10.90181641 1.07925781 10.11613281 1.08789062 9.30664062 C1.09111328 8.54931641 1.09433594 7.79199219 1.09765625 7.01171875 C1.10289307 6.31522217 1.10812988 5.61872559 1.11352539 4.90112305 C1.06895991 2.77502032 1.06895991 2.77502032 0 0 Z " fill="#7E1D1C" transform="translate(123,280)"/>
<path d="M0 0 C0.66 0.33 1.32 0.66 2 1 C2 6.28 2 11.56 2 17 C1.67 17 1.34 17 1 17 C0.67 12.71 0.34 8.42 0 4 C-1.32 4.33 -2.64 4.66 -4 5 C-3.6875 3.0625 -3.6875 3.0625 -3 1 C-2.01 0.67 -1.02 0.34 0 0 Z " fill="#0D0E98" transform="translate(68,249)"/>
<path d="M0 0 C0.66 0.66 1.32 1.32 2 2 C1.7578125 4.8203125 1.7578125 4.8203125 1.125 8.125 C0.92132813 9.22070312 0.71765625 10.31640625 0.5078125 11.4453125 C0.34023437 12.28835938 0.17265625 13.13140625 0 14 C-0.33 14 -0.66 14 -1 14 C-1 11.36 -1 8.72 -1 6 C-1.66 6 -2.32 6 -3 6 C-1.125 1.125 -1.125 1.125 0 0 Z " fill="#870F12" transform="translate(100,286)"/>
<path d="M0 0 C2.97 0 5.94 0 9 0 C9.66 1.65 10.32 3.3 11 5 C10.01 5.99 9.02 6.98 8 8 C7.34 6.02 6.68 4.04 6 2 C3.03 1.505 3.03 1.505 0 1 C0 0.67 0 0.34 0 0 Z " fill="#080B80" transform="translate(233,250)"/>
<path d="M0 0 C0.99 0 1.98 0 3 0 C2.0625 8.03571429 2.0625 8.03571429 1 12 C0.44191911 10.56879256 -0.09596462 9.12969645 -0.625 7.6875 C-0.92664063 6.88699219 -1.22828125 6.08648437 -1.5390625 5.26171875 C-1.69117188 4.51535156 -1.84328125 3.76898438 -2 3 C-1.34 2.01 -0.68 1.02 0 0 Z " fill="#C83837" transform="translate(233,144)"/>
<path d="M0 0 C2.01635978 3.02453967 3.03246502 5.63075348 4.1875 9.0625 C4.55230469 10.12597656 4.91710937 11.18945312 5.29296875 12.28515625 C6 15 6 15 5 17 C2.71592452 15.21246267 2.04162537 14.1789891 1.375 11.3125 C1.25125 10.219375 1.1275 9.12625 1 8 C0.81342329 6.54154825 0.62590673 5.08321647 0.4375 3.625 C0.293125 2.42875 0.14875 1.2325 0 0 Z " fill="#B93B3A" transform="translate(145,51)"/>
<path d="M0 0 C0.99 0 1.98 0 3 0 C2.34 4.29 1.68 8.58 1 13 C0.67 13 0.34 13 0 13 C0 11.35 0 9.7 0 8 C-0.66 8 -1.32 8 -2 8 C-1.67 7.01 -1.34 6.02 -1 5 C-1 5.66 -1 6.32 -1 7 C-0.34 7 0.32 7 1 7 C0.34 5.02 -0.32 3.04 -1 1 C-0.67 0.67 -0.34 0.34 0 0 Z " fill="#840B0D" transform="translate(197,288)"/>
<path d="M0 0 C0.99 0 1.98 0 3 0 C3.08159574 4.16138263 2.98248524 7.9472484 2 12 C1.67 12 1.34 12 1 12 C0.855625 10.9275 0.71125 9.855 0.5625 8.75 C0.10012053 5.20640191 0.10012053 5.20640191 -0.625 2.625 C-0.74875 2.08875 -0.8725 1.5525 -1 1 C-0.67 0.67 -0.34 0.34 0 0 Z " fill="#81191F" transform="translate(136,280)"/>
<path d="M0 0 C1.37478516 0.01740234 1.37478516 0.01740234 2.77734375 0.03515625 C3.69644531 0.04417969 4.61554688 0.05320313 5.5625 0.0625 C6.27277344 0.07410156 6.98304688 0.08570313 7.71484375 0.09765625 C8.04484375 1.08765625 8.37484375 2.07765625 8.71484375 3.09765625 C8.05484375 3.09765625 7.39484375 3.09765625 6.71484375 3.09765625 C6.71484375 2.43765625 6.71484375 1.77765625 6.71484375 1.09765625 C4.40484375 1.42765625 2.09484375 1.75765625 -0.28515625 2.09765625 C-0.38828125 2.73703125 -0.49140625 3.37640625 -0.59765625 4.03515625 C-0.82453125 4.71578125 -1.05140625 5.39640625 -1.28515625 6.09765625 C-2.27515625 6.42765625 -3.26515625 6.75765625 -4.28515625 7.09765625 C-3.24873605 0.13883487 -3.24873605 0.13883487 0 0 Z " fill="#090A6B" transform="translate(170.28515625,224.90234375)"/>
<path d="M0 0 C2.97 0 5.94 0 9 0 C8.34 1.32 7.68 2.64 7 4 C1.25 4.125 1.25 4.125 -1 3 C-0.67 2.01 -0.34 1.02 0 0 Z " fill="#952025" transform="translate(230,286)"/>
<path d="M0 0 C0.99 0.33 1.98 0.66 3 1 C3 2.98 3 4.96 3 7 C2.34 7 1.68 7 1 7 C0.67 7.66 0.34 8.32 0 9 C-0.66 6.36 -1.32 3.72 -2 1 C-1.34 0.67 -0.68 0.34 0 0 Z " fill="#960C0D" transform="translate(255,286)"/>
<path d="M0 0 C0.99 0 1.98 0 3 0 C3.125 2.875 3.125 2.875 3 6 C2.34 6.66 1.68 7.32 1 8 C0.34 7.67 -0.32 7.34 -1 7 C-0.67 4.69 -0.34 2.38 0 0 Z " fill="#04069C" transform="translate(258,261)"/>
<path d="M0 0 C1.90389849 2.85584773 2.69462177 4.9311762 3.625 8.1875 C4.01558594 9.53908203 4.01558594 9.53908203 4.4140625 10.91796875 C4.60742188 11.60503906 4.80078125 12.29210937 5 13 C3.68 12.67 2.36 12.34 1 12 C0.67 8.04 0.34 4.08 0 0 Z " fill="#BA3A3F" transform="translate(282,144)"/>
<path d="M0 0 C0.33 0 0.66 0 1 0 C1.06058594 0.62648438 1.12117188 1.25296875 1.18359375 1.8984375 C1.26738281 2.71570313 1.35117187 3.53296875 1.4375 4.375 C1.51871094 5.18710937 1.59992188 5.99921875 1.68359375 6.8359375 C1.89090114 9.04272805 1.89090114 9.04272805 3 11 C1.68 11 0.36 11 -1 11 C-1.02688151 9.35425434 -1.04634123 7.70838587 -1.0625 6.0625 C-1.07410156 5.14597656 -1.08570313 4.22945313 -1.09765625 3.28515625 C-1 1 -1 1 0 0 Z " fill="#A0090B" transform="translate(262,292)"/>
<path d="M0 0 C1.33333333 0 2.66666667 0 4 0 C4 1.65 4 3.3 4 5 C3.67 5 3.34 5 3 5 C2.67 7.31 2.34 9.62 2 12 C1.67 12 1.34 12 1 12 C0.01751476 7.9472484 -0.08159574 4.16138263 0 0 Z " fill="#84181E" transform="translate(47,290)"/>
<path d="M0 0 C0 1.98 0 3.96 0 6 C-0.37125 5.505 -0.7425 5.01 -1.125 4.5 C-3.74694393 2.40244486 -5.73842472 2.78256165 -9 3 C-9 2.34 -9 1.68 -9 1 C-5.94152152 0.45627049 -3.11227195 0 0 0 Z " fill="#931422" transform="translate(167,286)"/>
<path d="M0 0 C0.66 0 1.32 0 2 0 C4 3 4 3 4 6 C2.35 6 0.7 6 -1 6 C-1.042721 4.33388095 -1.04063832 2.66617115 -1 1 C-0.67 0.67 -0.34 0.34 0 0 Z " fill="#03059A" transform="translate(248,261)"/>
<path d="M0 0 C0.66 0 1.32 0 2 0 C4.42857143 6.28571429 4.42857143 6.28571429 3 10 C2.67 8.02 2.34 6.04 2 4 C1.34 4 0.68 4 0 4 C0 4.66 0 5.32 0 6 C-0.66 6 -1.32 6 -2 6 C-1.34 4.02 -0.68 2.04 0 0 Z " fill="#BD2F32" transform="translate(183,7)"/>
<path d="M0 0 C0.66 0.66 1.32 1.32 2 2 C1.625 4.125 1.625 4.125 1 6 C-1.475 5.01 -1.475 5.01 -4 4 C-4 3.01 -4 2.02 -4 1 C-2.125 0.375 -2.125 0.375 0 0 Z " fill="#0809A0" transform="translate(162,253)"/>
<path d="M0 0 C1.32 0 2.64 0 4 0 C3.34 1.98 2.68 3.96 2 6 C1.01 6 0.02 6 -1 6 C-0.67 4.02 -0.34 2.04 0 0 Z " fill="#911217" transform="translate(54,292)"/>
<path d="M0 0 C1.4540625 0.0309375 1.4540625 0.0309375 2.9375 0.0625 C1.88875002 2.68437494 1.28818687 3.85621361 -1.1875 5.3125 C-1.80625 5.56 -2.425 5.8075 -3.0625 6.0625 C-3.44468767 4.40635343 -3.77645102 2.73792976 -4.0625 1.0625 C-3.0625 0.0625 -3.0625 0.0625 0 0 Z " fill="#951C27" transform="translate(251.0625,285.9375)"/>
<path d="M0 0 C2.97 0 5.94 0 9 0 C9 1.32 9 2.64 9 4 C8.34 3.67 7.68 3.34 7 3 C4.37886292 3 2.49064888 3.31292445 0 4 C0 2.68 0 1.36 0 0 Z " fill="#8C1F23" transform="translate(87,286)"/>
<path d="M0 0 C0.33 0.66 0.66 1.32 1 2 C2.98 1.67 4.96 1.34 7 1 C5.68 2.32 4.36 3.64 3 5 C1.02 4.34 -0.96 3.68 -3 3 C-2.01 2.01 -1.02 1.02 0 0 Z " fill="#04068A" transform="translate(243,244)"/>
<path d="M0 0 C0.33 0 0.66 0 1 0 C1 1.98 1 3.96 1 6 C1.66 6 2.32 6 3 6 C2.67 7.32 2.34 8.64 2 10 C1.01 10 0.02 10 -1 10 C-1.125 3.375 -1.125 3.375 0 0 Z " fill="#B72825" transform="translate(60,57)"/>
<path d="M0 0 C0.33 0 0.66 0 1 0 C1.125 6.625 1.125 6.625 0 10 C0.66 10.33 1.32 10.66 2 11 C0.68 10.67 -0.64 10.34 -2 10 C-1.54177532 6.53058454 -1.10868317 3.32604951 0 0 Z " fill="#131879" transform="translate(257,258)"/>
<path d="M0 0 C0.99 0 1.98 0 3 0 C3 1.98 3 3.96 3 6 C2.01 6.33 1.02 6.66 0 7 C0 4.69 0 2.38 0 0 Z " fill="#8E0A0D" transform="translate(41,296)"/>
<path d="M0 0 C1.32 0 2.64 0 4 0 C4 0.66 4 1.32 4 2 C5.98 1.67 7.96 1.34 10 1 C10 1.66 10 2.32 10 3 C6.7 3 3.4 3 0 3 C0 2.01 0 1.02 0 0 Z " fill="#9E0E0C" transform="translate(211,294)"/>
<path d="M0 0 C0.99 0.33 1.98 0.66 3 1 C2.67 1.99 2.34 2.98 2 4 C2 3.34 2 2.68 2 2 C1.34 2 0.68 2 0 2 C0.33 3.98 0.66 5.96 1 8 C0.01 8 -0.98 8 -2 8 C-1.125 1.125 -1.125 1.125 0 0 Z " fill="#942026" transform="translate(70,286)"/>
<path d="M0 0 C0.66 1.32 1.32 2.64 2 4 C3.98 4 5.96 4 8 4 C8.33 3.01 8.66 2.02 9 1 C9.33 2.32 9.66 3.64 10 5 C6.93109813 6.53445094 4.29905734 5.54984289 1 5 C0.67 3.35 0.34 1.7 0 0 Z " fill="#13117B" transform="translate(244,263)"/>
<path d="M0 0 C2.64 0 5.28 0 8 0 C8.33 0.99 8.66 1.98 9 3 C5.7 2.67 2.4 2.34 -1 2 C-0.67 1.34 -0.34 0.68 0 0 Z " fill="#0205A2" transform="translate(38,244)"/>
<path d="M0 0 C0.33 0.66 0.66 1.32 1 2 C1.66 2 2.32 2 3 2 C3.33 1.34 3.66 0.68 4 0 C4 1.65 4 3.3 4 5 C2.68 5.33 1.36 5.66 0 6 C0 4.02 0 2.04 0 0 Z " fill="#85181D" transform="translate(59,298)"/>
<path d="M0 0 C0.66 0 1.32 0 2 0 C2.33 1.65 2.66 3.3 3 5 C1.02 5 -0.96 5 -3 5 C-1.125 1.125 -1.125 1.125 0 0 Z " fill="#B12221" transform="translate(77,154)"/>
<path d="M0 0 C2.45823172 3.68734758 3.01242616 6.69699971 4 11 C3.01 11 2.02 11 1 11 C0.67 7.37 0.34 3.74 0 0 Z " fill="#B83D3E" transform="translate(138,31)"/>
<path d="M0 0 C0.33 0 0.66 0 1 0 C1.144375 0.7425 1.28875 1.485 1.4375 2.25 C1.90187492 4.52027739 2.41863569 6.75759479 3 9 C1.68 9 0.36 9 -1 9 C-0.67 6.03 -0.34 3.06 0 0 Z " fill="#7E1212" transform="translate(178,295)"/>
<path d="M0 0 C0.33 0 0.66 0 1 0 C1 2.64 1 5.28 1 8 C-0.32 7.67 -1.64 7.34 -3 7 C-2.34 6.67 -1.68 6.34 -1 6 C-0.34227572 2.97065509 -0.34227572 2.97065509 0 0 Z " fill="#930B0E" transform="translate(254,296)"/>
<path d="M0 0 C1.98 0 3.96 0 6 0 C6.33 1.32 6.66 2.64 7 4 C6.01 4.495 6.01 4.495 5 5 C2.875 4.0625 2.875 4.0625 1 3 C2.32 3 3.64 3 5 3 C5 2.34 5 1.68 5 1 C3.35 1 1.7 1 0 1 C0 0.67 0 0.34 0 0 Z " fill="#861D1F" transform="translate(144,286)"/>
<path d="M0 0 C1.32 0 2.64 0 4 0 C4 1.32 4 2.64 4 4 C2.68 4 1.36 4 0 4 C0 2.68 0 1.36 0 0 Z " fill="#83161F" transform="translate(70,280)"/>
</svg>
